<svg width="22" height="22" viewBox="0 0 22 22" fill="none" xmlns="http://www.w3.org/2000/svg">
<path d="M10.9997 15.0771C10.3846 15.0771 9.86908 15.5927 9.86908 16.2078C9.86908 16.8228 10.3846 17.3384 10.9997 17.3384C11.5921 17.3384 12.1303 16.8228 12.1032 16.2349C12.1303 15.5882 11.6193 15.0771 10.9997 15.0771Z" fill="#FF185F"/>
<path d="M21.4646 19.0838C22.1746 17.8583 22.1792 16.3975 21.4737 15.1765L14.3915 2.9116C13.6905 1.67697 12.4243 0.944336 11.0042 0.944336C9.58417 0.944336 8.31789 1.68149 7.61691 2.90708L0.525725 15.1855C-0.179776 16.4201 -0.175253 17.8899 0.539292 19.1155C1.24479 20.3275 2.50655 21.0556 3.91756 21.0556H18.0637C19.4793 21.0556 20.7501 20.3185 21.4646 19.0838ZM19.927 18.1974C19.5335 18.8758 18.8371 19.2783 18.0592 19.2783H3.91303C3.14422 19.2783 2.45228 18.8849 2.06788 18.2201C1.67895 17.5462 1.67442 16.7412 2.06335 16.0629L9.15454 3.78895C9.53895 3.11511 10.2264 2.71713 11.0042 2.71713C11.7776 2.71713 12.4695 3.11963 12.8539 3.79347L19.9406 16.0674C20.3204 16.7277 20.3159 17.5236 19.927 18.1974Z" fill="#FF185F"/>
<path d="M10.7193 7.14032C10.1811 7.29408 9.84647 7.7825 9.84647 8.37494C9.8736 8.73222 9.89621 9.09401 9.92335 9.45128C10.0002 10.8125 10.0771 12.1467 10.154 13.5079C10.1811 13.9692 10.5384 14.3039 10.9997 14.3039C11.461 14.3039 11.8228 13.9466 11.8454 13.4808C11.8454 13.2004 11.8454 12.9426 11.8725 12.6577C11.9223 11.7849 11.9765 10.912 12.0263 10.0392C12.0534 9.4739 12.1032 8.90859 12.1303 8.34329C12.1303 8.13978 12.1032 7.95888 12.0263 7.77798C11.7956 7.27147 11.2575 7.01369 10.7193 7.14032Z" fill="#FF185F"/>
</svg>
