<svg width="159" height="53" viewBox="0 0 159 53" fill="none" xmlns="http://www.w3.org/2000/svg">
<path d="M79.4571 53C55.0434 53 30.6297 53 6.21594 53C2.5237 53 0.438935 50.9372 0.436192 47.2285C0.42522 33.4114 0.427963 19.5971 0.436192 5.77999C0.436192 2.15908 2.61697 0.00573358 6.27629 0.00573358C55.1504 0.000247347 104.024 -0.00249577 152.896 0.00299046C156.369 0.00299046 158.596 2.17554 158.602 5.63461C158.623 19.5888 158.623 33.5403 158.602 47.4946C158.596 50.9235 156.432 52.9945 152.973 52.9973C128.466 53 103.961 53 79.4571 53ZM12.0094 26.3808C12.0094 31.1374 11.9957 35.8939 12.0149 40.6505C12.0259 43.1303 13.1533 44.244 15.6358 44.2522C19.6572 44.2659 23.6814 44.2659 27.7028 44.2549C30.2511 44.2495 31.3676 43.1303 31.3676 40.56C31.3758 31.184 31.3785 21.808 31.3703 12.432C31.3676 10.0016 30.1716 8.81114 27.7521 8.80565C23.7746 8.79468 19.7999 8.79468 15.8223 8.80291C13.1341 8.80839 12.0121 9.94404 12.0094 12.657C12.0012 17.2352 12.0067 21.808 12.0094 26.3808ZM60.4967 40.73C64.2905 43.1632 67.9553 42.3567 69.6121 38.8181C70.6655 36.5687 70.7395 34.1959 69.8645 31.8835C68.2954 27.7524 63.9146 26.8362 60.7134 29.8947C60.6064 29.999 60.4391 30.0401 60.2745 30.1252C60.0002 28.1611 59.6162 27.9636 57.5095 28.6082C57.5095 34.5827 57.5095 40.5627 57.5122 46.54C57.5122 46.7594 57.5561 46.9789 57.5918 47.2916C58.5628 47.2916 59.4927 47.2916 60.4995 47.2916C60.4967 45.1053 60.4967 43.0123 60.4967 40.73ZM72.2537 47.2724C73.4003 47.2724 74.3248 47.2724 75.4056 47.2724C75.4056 45.045 75.4056 42.9328 75.4056 40.6971C78.8537 43.6185 82.8888 41.8575 84.2137 39.2213C85.5715 36.5166 85.6703 33.7296 84.2905 31.0386C82.5788 27.7002 78.4394 27.1077 75.7128 29.6945C75.54 29.8591 75.3233 29.9798 75.0901 30.1471C74.9776 29.5107 74.8844 28.984 74.7884 28.4436C73.9188 28.4436 73.1617 28.4436 72.4073 28.4436C72.3415 28.6384 72.2619 28.7646 72.2619 28.888C72.2537 34.9695 72.2537 41.051 72.2537 47.2724ZM55.6551 41.9096C55.518 41.4048 55.4494 41.1031 55.3561 40.8123C53.7048 35.6854 52.0754 30.5531 50.3883 25.4399C49.4721 22.6584 50.1744 23.2591 47.2749 23.122C46.1969 23.0699 45.7772 23.4841 45.4754 24.4661C44.2602 28.4354 42.9627 32.38 41.6954 36.3356C41.1166 38.1405 40.5378 39.9455 39.9042 41.9233C40.7737 41.9233 41.4101 41.8767 42.0355 41.9343C42.8393 42.0083 43.141 41.6243 43.355 40.9029C43.7911 39.4298 43.9228 37.3834 44.9378 36.6949C46.0432 35.9433 48.0128 36.4645 49.6038 36.4316C49.6943 36.4288 49.8123 36.3959 49.8726 36.4371C50.2622 36.7086 50.8327 36.9198 50.9863 37.2984C51.4828 38.5191 51.7956 39.8166 52.2454 41.0592C52.3634 41.3884 52.6898 41.8383 52.9696 41.8739C53.8063 41.9782 54.6621 41.9096 55.6551 41.9096ZM101.44 23.8023C99.4078 22.8477 97.441 22.6913 95.4193 23.0616C93.0548 23.4923 91.3019 25.108 90.9398 27.1406C90.5338 29.4147 91.4638 31.28 93.7652 32.572C94.8378 33.1728 96.0118 33.587 97.1146 34.1411C98.6974 34.9393 99.3118 36.0256 99.0375 37.4054C98.7714 38.744 97.7153 39.6355 95.968 39.5807C94.4044 39.5313 92.8518 39.1473 91.1922 38.8922C91.3156 39.6273 89.6231 40.6916 91.365 41.4268C93.9518 42.5158 96.6537 42.5981 99.2213 41.3637C102.782 39.652 103.191 34.8762 100.009 32.5226C99.1747 31.9054 98.1707 31.5214 97.2435 31.0304C96.4398 30.6025 95.5565 30.276 94.846 29.7274C93.2852 28.5177 93.6226 26.3204 95.4934 25.706C96.3685 25.418 97.3834 25.4509 98.3243 25.5167C99.1116 25.5716 99.8824 25.8898 100.711 26.1037C100.955 25.3302 101.174 24.6417 101.44 23.8023ZM125.067 35.1889C125.127 31.0029 122.617 28.1913 118.752 28.1117C114.701 28.0267 111.903 30.8713 111.848 35.1259C111.796 39.2296 114.393 42.1345 118.198 42.2333C122.22 42.3348 125.004 39.4792 125.067 35.1889ZM138.072 35.9049C138.514 35.9049 138.961 35.9049 139.408 35.9049C141.556 35.9049 143.704 35.9378 145.852 35.8802C146.23 35.8692 146.85 35.5401 146.932 35.2411C147.547 33.0109 146.123 29.8015 144.129 28.7152C141.992 27.5494 138.859 28.013 137.131 29.7521C134.797 32.1002 134.289 36.4974 136.028 39.3036C137.828 42.2113 142.713 43.1467 146.222 41.1744C146.074 40.5737 145.917 39.94 145.764 39.3146C140.566 40.4777 138.039 39.3695 138.072 35.9049ZM110.666 39.6877C108.43 39.63 107.876 39.3832 107.794 37.8937C107.662 35.5373 107.758 33.1673 107.758 30.6271C108.885 30.6271 109.906 30.6271 110.912 30.6271C110.912 29.7905 110.912 29.1349 110.912 28.3449C109.818 28.3449 108.83 28.3449 107.665 28.3449C107.665 27.201 107.665 26.1888 107.665 25.1574C105.083 25.6402 105.083 25.6402 104.568 28.2927C104.014 28.3504 103.443 28.4107 102.889 28.4683C102.889 29.2419 102.889 29.8975 102.889 30.5942C103.528 30.6518 104.06 30.7012 104.74 30.7643C104.74 31.4418 104.729 32.07 104.743 32.6982C104.782 34.7555 104.705 36.8211 104.905 38.862C105.13 41.1717 106.488 42.225 108.795 42.2003C110.973 42.1784 111.11 41.9974 110.666 39.6877ZM129.81 41.8245C129.878 41.6188 129.93 41.531 129.93 41.446C129.944 39.4325 129.95 37.4191 129.958 35.4057C129.974 32.2044 130.8 31.2608 133.985 30.8823C133.985 30.0099 133.985 29.1294 133.985 28.1858C131.96 27.906 130.71 28.9374 129.675 30.693C129.459 28.1583 129.14 27.9499 126.979 28.5917C126.979 32.9753 126.979 37.3533 126.979 41.8218C127.964 41.8245 128.852 41.8245 129.81 41.8245ZM81.5968 8.86874C81.5968 11.7134 81.5968 14.44 81.5968 17.1667C81.5968 17.751 81.5968 18.3325 81.5968 19.2158C82.321 18.9442 82.8476 18.5684 83.3496 18.5986C83.9915 18.6342 84.606 19.1472 85.2479 19.1856C86.5097 19.2624 87.3902 18.5437 87.9361 17.4328C88.674 15.9323 88.4299 13.6829 87.404 12.6707C86.1586 11.4418 84.7898 11.6942 83.2591 12.5774C83.2591 11.258 83.2591 10.1004 83.2591 8.86874C82.683 8.86874 82.2469 8.86874 81.5968 8.86874ZM39.8493 18.8537C41.0617 19.2898 41.742 19.0265 41.9258 17.8223C42.0959 16.7168 42.5375 16.127 43.8789 16.1682C45.1243 16.2038 45.7141 16.5906 45.8841 17.7702C46.0624 19.0265 46.7976 19.2926 48.032 18.8592C47.0582 15.8417 46.1173 12.849 45.0996 9.88369C45.0036 9.6039 44.4166 9.34604 44.0572 9.3433C43.6293 9.33782 42.9079 9.51886 42.8119 9.79317C41.7695 12.7914 40.8258 15.8225 39.8493 18.8537ZM138.876 18.9689C138.876 17.5672 138.895 16.2944 138.873 15.0216C138.821 12.1715 137.238 11.2059 134.643 12.4156C134.594 12.4375 134.492 12.3552 134.308 12.273C134.308 11.1894 134.308 10.062 134.308 8.89892C133.732 8.89892 133.266 8.89892 132.676 8.89892C132.676 10.6435 132.676 12.2812 132.676 13.9188C132.676 15.5921 132.676 17.2627 132.676 18.9579C133.332 18.9579 133.771 18.9579 134.372 18.9579C134.372 17.622 134.355 16.352 134.377 15.0846C134.394 14.1328 134.693 13.2934 135.809 13.2742C137.008 13.255 137.139 14.1876 137.156 15.1011C137.178 16.3684 137.161 17.633 137.161 18.9662C137.776 18.9689 138.215 18.9689 138.876 18.9689ZM112.682 15.54C112.69 13.2632 111.34 11.8148 109.225 11.8313C107.149 11.845 105.747 13.362 105.761 15.5811C105.772 17.7756 107.11 19.2103 109.157 19.224C111.253 19.235 112.674 17.751 112.682 15.54ZM62.469 18.8153C62.469 17.5589 62.48 16.2395 62.4663 14.9228C62.4361 12.2757 60.1593 10.9206 57.8249 12.2016C57.5424 12.3552 57.4903 12.9313 57.2434 13.5293C59.992 12.8737 60.3321 12.9697 60.6641 14.259C59.7588 14.5196 58.807 14.6787 57.9593 15.0682C56.9252 15.5427 56.5768 16.5001 56.8017 17.6001C57.013 18.626 57.7317 19.2185 58.7521 19.1911C59.9728 19.1582 61.1907 18.9524 62.469 18.8153ZM146.644 15.9816C146.957 13.5732 146.03 12.0672 144.271 11.8368C142.362 11.5844 140.771 12.9258 140.538 14.9777C140.179 18.146 142.73 20.121 145.72 18.9332C146.027 18.8125 146.148 18.22 146.485 17.6056C143.235 18.0774 142.557 17.7921 142.277 15.9816C143.726 15.9816 145.158 15.9816 146.644 15.9816ZM73.7707 13.1946C73.9215 13.2797 74.0751 13.3647 74.226 13.4497C76.4123 12.8216 76.9582 12.9889 77.0981 14.248C76.138 14.558 75.1422 14.7527 74.2727 15.1916C73.3016 15.6854 72.9669 16.7278 73.3866 17.6577C73.6747 18.2941 74.4537 19.0539 75.0791 19.1198C76.3547 19.2514 77.6769 18.9497 78.9716 18.829C78.9716 17.5726 78.9798 16.3465 78.9689 15.1176C78.9442 12.3168 77.0734 11.0385 74.5086 12.1276C74.1739 12.2702 74.0121 12.8271 73.7707 13.1946ZM99.9208 15.9186C100.253 13.6226 99.3475 12.1001 97.6029 11.845C95.7348 11.5735 94.1986 12.764 93.853 14.8021C93.6089 16.234 93.8311 17.5699 95.0545 18.5053C96.2944 19.4544 97.7235 19.342 99.1033 18.9058C99.3639 18.8235 99.4517 18.1926 99.6959 17.6467C96.3794 18.0527 95.6936 17.7482 95.6196 15.9213C97.0652 15.9186 98.5053 15.9186 99.9208 15.9186ZM120.656 18.9579C120.656 17.2078 120.768 15.5235 120.62 13.864C120.505 12.5774 119.559 11.7243 118.267 11.8834C117.117 12.0233 116.012 12.4046 114.841 12.0672C114.794 12.0535 114.709 12.1687 114.657 12.2126C114.657 14.4482 114.657 16.6674 114.657 18.9415C115.211 18.9415 115.68 18.9415 116.278 18.9415C116.278 17.6248 116.264 16.3986 116.283 15.1752C116.297 14.1657 116.621 13.2742 117.789 13.2879C118.974 13.3016 119.049 14.2837 119.062 15.1834C119.081 16.4425 119.068 17.6988 119.068 18.9634C119.743 18.9579 120.181 18.9579 120.656 18.9579ZM52.1522 17.046C51.6529 15.5153 51.1921 14.3632 50.9095 13.1727C50.605 11.8807 49.9001 11.7792 48.7672 12.2016C49.5435 14.3303 50.2676 16.3959 51.0659 18.4312C51.1756 18.7083 51.6611 18.9963 51.9711 18.9963C52.3442 18.9963 52.9394 18.7824 53.0547 18.5026C53.916 16.4151 54.6841 14.2919 55.4851 12.166C54.2506 11.7435 53.6307 12.0453 53.3536 13.2166C53.0766 14.4071 52.6295 15.5565 52.1522 17.046ZM90.3007 8.86051C90.3007 12.2839 90.3007 15.5894 90.3007 18.9415C90.8603 18.9415 91.3321 18.9415 91.8533 18.9415C91.8533 15.54 91.8533 12.2345 91.8533 8.86051C91.3348 8.86051 90.8932 8.86051 90.3007 8.86051ZM128.822 10.4515C128.131 10.5146 126.364 11.9109 126.299 12.4513C126.268 12.6899 126.384 13.1535 126.493 13.1727C127.563 13.362 127.187 14.1849 127.239 14.7994C127.333 15.8856 127.245 17.0131 127.506 18.0554C127.791 19.1993 128.861 19.3502 129.851 19.1307C130.177 19.0594 130.394 18.4834 130.74 18.0308C128.789 17.5452 128.501 16.5742 129.047 13.5951C129.623 13.2769 130.12 13.0054 130.614 12.731C130.117 12.3552 129.621 11.9822 128.943 11.4692C128.924 11.3266 128.874 10.8877 128.822 10.4515ZM70.8931 18.9662C70.8931 15.4824 70.8931 12.1715 70.8931 8.77273C70.328 8.81114 69.8946 8.84131 69.4228 8.87423C69.4228 12.2949 69.4228 15.6058 69.4228 18.9634C69.9687 18.9662 70.4076 18.9662 70.8931 18.9662ZM65.0119 12.0727C65.0119 14.3934 65.0119 16.6427 65.0119 18.9387C65.5715 18.9387 66.0406 18.9387 66.5179 18.9387C66.5179 16.5906 66.5179 14.3413 66.5179 12.0727C65.972 12.0727 65.5358 12.0727 65.0119 12.0727ZM66.9513 10.2458C66.9513 10.0757 66.9485 9.90564 66.9485 9.73557C66.5425 9.50789 66.1201 9.08271 65.7333 9.11288C65.4042 9.14031 64.8665 9.70265 64.8802 10.0071C64.8939 10.3418 65.4179 10.8986 65.747 10.9151C66.1338 10.9398 66.548 10.4899 66.9513 10.2458Z" fill="black"/>
<path d="M12.0067 26.3808C12.0039 21.808 11.9984 17.2325 12.0067 12.6597C12.0122 9.94678 13.1341 8.81113 15.8196 8.80564C19.7971 8.79741 23.7719 8.79741 27.7494 8.80838C30.1688 8.81387 31.3648 10.0044 31.3676 12.4348C31.3758 21.8108 31.3758 31.1867 31.3648 40.5627C31.3621 43.1303 30.2456 44.2494 27.7 44.2577C23.6786 44.2686 19.6545 44.2687 15.6331 44.2549C13.1505 44.2467 12.0231 43.133 12.0122 40.6532C11.9957 35.8939 12.0094 31.1374 12.0067 26.3808ZM13.9872 37.9485C19.2238 37.9485 24.3068 37.9485 29.3486 37.9485C29.3486 30.2568 29.3486 22.6968 29.3486 15.123C24.1806 15.123 19.1251 15.123 13.9872 15.123C13.9872 22.7626 13.9872 30.3254 13.9872 37.9485ZM23.248 40.8919C23.0943 40.0443 22.6061 39.4462 21.6103 39.5121C20.7188 39.5697 20.1565 40.0991 20.162 41.0181C20.1702 41.9946 20.738 42.5652 21.7118 42.5597C22.6993 42.5569 23.1794 41.948 23.248 40.8919ZM23.3851 12.4814C23.3879 12.3689 23.3906 12.2565 23.3933 12.144C22.2604 12.144 21.1248 12.144 19.9919 12.144C19.9919 12.2565 19.9919 12.3689 19.9919 12.4814C21.122 12.4814 22.2549 12.4814 23.3851 12.4814Z" fill="white"/>
<path d="M60.4967 40.73C60.4967 43.0123 60.4967 45.1081 60.4967 47.2916C59.49 47.2916 58.5628 47.2916 57.589 47.2916C57.5561 46.9789 57.5095 46.7594 57.5095 46.54C57.5067 40.5627 57.5067 34.5855 57.5067 28.6082C59.6107 27.9636 59.9947 28.1611 60.2718 30.1252C60.4391 30.0401 60.6037 29.999 60.7107 29.8947C63.9119 26.8362 68.2926 27.7524 69.8617 31.8835C70.7395 34.1932 70.6627 36.566 69.6093 38.8181C67.9552 42.3567 64.2904 43.1632 60.4967 40.73ZM60.4226 35.1999C60.4611 35.2054 60.4995 35.2109 60.5379 35.2164C60.5379 35.6717 60.5132 36.1326 60.5433 36.5852C60.6503 38.2695 61.7256 39.5395 63.2261 39.7782C64.8116 40.0333 66.1859 39.2735 66.8278 37.6934C67.5301 35.9707 67.552 34.2124 66.7894 32.498C66.2189 31.2142 65.2066 30.5119 63.7747 30.5257C62.4553 30.5394 61.2401 31.4254 60.8204 32.786C60.5845 33.5595 60.5488 34.3934 60.4226 35.1999Z" fill="white"/>
<path d="M72.2537 47.2724C72.2537 41.051 72.2537 34.9695 72.2591 28.888C72.2591 28.7646 72.3387 28.6384 72.4045 28.4436C73.1589 28.4436 73.916 28.4436 74.7856 28.4436C74.8816 28.9813 74.9748 29.5107 75.0873 30.1471C75.3205 29.9798 75.5372 29.8591 75.71 29.6945C78.4366 27.1077 82.576 27.7002 84.2877 31.0386C85.6675 33.7323 85.5715 36.5194 84.2109 39.2213C82.886 41.8575 78.8481 43.6185 75.4028 40.6971C75.4028 42.9355 75.4028 45.045 75.4028 47.2724C74.3275 47.2724 73.403 47.2724 72.2537 47.2724ZM75.2766 34.953C75.3479 35.946 75.3287 36.5962 75.4549 37.2161C75.7402 38.6343 76.8127 39.63 78.1267 39.7919C79.586 39.9702 80.8862 39.331 81.5117 37.9869C82.362 36.1573 82.4059 34.2618 81.5638 32.4157C81.0097 31.1977 80.003 30.5064 78.6314 30.5366C77.2105 30.5695 76.1708 31.3019 75.7045 32.6186C75.4028 33.4608 75.3726 34.3962 75.2766 34.953Z" fill="white"/>
<path d="M55.6552 41.9096C54.6649 41.9096 53.8063 41.9782 52.9751 41.8712C52.6981 41.8355 52.3716 41.3857 52.2509 41.0565C51.8011 39.8139 51.4884 38.5191 50.9919 37.2957C50.8382 36.9199 50.2677 36.7086 49.8782 36.4343C49.8178 36.3904 49.6999 36.4261 49.6093 36.4288C48.0183 36.4618 46.0488 35.9433 44.9433 36.6922C43.9283 37.3807 43.7967 39.4271 43.3605 40.9001C43.1465 41.6216 42.8448 42.0083 42.0411 41.9315C41.4156 41.8739 40.7792 41.9206 39.9097 41.9206C40.5433 39.9428 41.1221 38.1378 41.7009 36.3328C42.9682 32.38 44.2657 28.4327 45.4809 24.4634C45.7827 23.4786 46.2024 23.0671 47.2804 23.1192C50.1799 23.2591 49.4777 22.6584 50.3939 25.4372C52.0781 30.5531 53.7103 35.6855 55.3616 40.8096C55.4494 41.1031 55.518 41.4049 55.6552 41.9096ZM50.147 33.9984C49.3268 31.3404 48.5395 28.7865 47.6809 26.0105C46.8635 28.7865 46.1064 31.3596 45.3301 33.9984C47.0198 33.9984 48.5093 33.9984 50.147 33.9984Z" fill="white"/>
<path d="M101.441 23.8023C101.172 24.6417 100.955 25.3275 100.708 26.0983C99.8769 25.8843 99.1089 25.5688 98.3216 25.5112C97.3834 25.4454 96.3657 25.4152 95.4907 25.7005C93.6199 26.315 93.2825 28.5122 94.8433 29.7219C95.551 30.2733 96.4343 30.5997 97.2408 31.0249C98.168 31.5159 99.172 31.9 100.006 32.5172C103.191 34.8708 102.779 39.6465 99.2186 41.3582C96.651 42.5926 93.9491 42.5103 91.3623 41.4213C89.6177 40.6862 91.3129 39.6218 91.1895 38.8867C92.8491 39.139 94.4017 39.5258 95.9653 39.5752C97.7126 39.6301 98.7687 38.7385 99.0348 37.3999C99.3091 36.0201 98.6946 34.9366 97.1119 34.1356C96.0119 33.5815 94.8351 33.1673 93.7625 32.5665C91.4611 31.2773 90.5311 29.412 90.9371 27.1352C91.2992 25.1053 93.0521 23.4896 95.4166 23.0562C97.441 22.6913 99.4079 22.8477 101.441 23.8023Z" fill="white"/>
<path d="M125.067 35.189C125.007 39.4792 122.22 42.3348 118.198 42.2333C114.393 42.1373 111.796 39.2296 111.848 35.1259C111.903 30.8685 114.701 28.0239 118.752 28.1117C122.617 28.1913 125.127 31.003 125.067 35.189ZM122.228 35.0929C121.767 33.8668 121.523 32.6159 120.878 31.6256C119.707 29.8262 117.109 29.9441 115.886 31.7107C114.635 33.5129 114.621 36.662 115.853 38.4889C117.134 40.3872 119.666 40.4914 120.878 38.5657C121.512 37.5618 121.767 36.3219 122.228 35.0929Z" fill="white"/>
<path d="M138.072 35.9049C138.039 39.3694 140.566 40.4777 145.764 39.3118C145.917 39.9373 146.074 40.5709 146.222 41.1717C142.713 43.144 137.831 42.2086 136.028 39.3009C134.289 36.4919 134.797 32.0947 137.131 29.7493C138.859 28.0102 141.992 27.5466 144.129 28.7124C146.123 29.7987 147.547 33.0082 146.932 35.2383C146.85 35.5373 146.23 35.8665 145.852 35.8775C143.706 35.9378 141.556 35.9049 139.408 35.9021C138.961 35.9049 138.514 35.9049 138.072 35.9049ZM143.989 33.65C144.134 31.6147 143.056 30.2596 141.314 30.2102C139.468 30.1581 138.056 31.6887 138.154 33.65C140.102 33.65 142.05 33.65 143.989 33.65Z" fill="white"/>
<path d="M110.666 39.6877C111.11 42.0001 110.973 42.1784 108.792 42.2004C106.485 42.225 105.127 41.1717 104.902 38.862C104.705 36.8211 104.779 34.7528 104.74 32.6982C104.729 32.07 104.738 31.4391 104.738 30.7643C104.057 30.7012 103.525 30.6518 102.886 30.5942C102.886 29.8975 102.886 29.2446 102.886 28.4683C103.44 28.4107 104.011 28.3504 104.565 28.2928C105.078 25.6402 105.078 25.6402 107.662 25.1574C107.662 26.1888 107.662 27.201 107.662 28.3449C108.828 28.3449 109.815 28.3449 110.91 28.3449C110.91 29.1349 110.91 29.7905 110.91 30.6272C109.903 30.6272 108.883 30.6272 107.755 30.6272C107.755 33.1673 107.659 35.5373 107.791 37.8937C107.876 39.3804 108.43 39.6273 110.666 39.6877Z" fill="white"/>
<path d="M129.81 41.8246C128.852 41.8246 127.964 41.8246 126.979 41.8246C126.979 37.356 126.979 32.978 126.979 28.5945C129.14 27.9526 129.459 28.1584 129.675 30.6957C130.71 28.9401 131.96 27.9087 133.985 28.1885C133.985 29.1322 133.985 30.0127 133.985 30.885C130.8 31.2636 129.972 32.2072 129.958 35.4084C129.947 37.4219 129.941 39.4353 129.93 41.4487C129.93 41.531 129.878 41.6188 129.81 41.8246Z" fill="white"/>
<path d="M81.5968 8.86874C82.2469 8.86874 82.6831 8.86874 83.2591 8.86874C83.2591 10.1004 83.2591 11.258 83.2591 12.5774C84.787 11.6942 86.1559 11.4418 87.404 12.6707C88.4299 13.6829 88.674 15.9323 87.9361 17.4328C87.3903 18.541 86.5097 19.2597 85.2479 19.1856C84.606 19.1472 83.9915 18.6342 83.3497 18.5986C82.8449 18.5711 82.321 18.9442 81.5968 19.2158C81.5968 18.3325 81.5968 17.751 81.5968 17.1667C81.5968 14.44 81.5968 11.7161 81.5968 8.86874ZM83.2729 15.5811C83.2756 17.035 83.8407 17.825 84.8831 17.8332C85.9364 17.8415 86.6195 16.917 86.614 15.4851C86.6085 14.1547 85.9254 13.2276 84.9379 13.2111C83.89 13.1946 83.2674 14.0779 83.2729 15.5811Z" fill="white"/>
<path d="M39.8492 18.8537C40.823 15.8225 41.7667 12.7914 42.8091 9.79591C42.9051 9.5216 43.6265 9.34055 44.0544 9.34604C44.4165 9.34878 45.0008 9.60663 45.0968 9.88643C46.1145 12.8517 47.0554 15.8445 48.0292 18.8619C46.7976 19.2926 46.0597 19.0265 45.8814 17.7729C45.714 16.5934 45.1215 16.2066 43.8761 16.1709C42.5348 16.1325 42.0931 16.7195 41.923 17.825C41.742 19.0265 41.0617 19.2898 39.8492 18.8537ZM45.042 14.8871C44.6442 13.6143 44.3095 12.55 43.8816 11.1757C43.4647 12.5665 43.141 13.6555 42.7734 14.8871C43.2754 14.8871 43.5826 14.8871 43.8871 14.8871C44.1943 14.8871 44.5043 14.8871 45.042 14.8871Z" fill="white"/>
<path d="M138.876 18.9689C138.215 18.9689 137.776 18.9689 137.156 18.9689C137.156 17.6358 137.172 16.3712 137.15 15.1039C137.134 14.1904 137.005 13.2577 135.804 13.2769C134.687 13.2961 134.388 14.1355 134.372 15.0874C134.35 16.3547 134.366 17.622 134.366 18.9607C133.765 18.9607 133.329 18.9607 132.671 18.9607C132.671 17.2654 132.671 15.5949 132.671 13.9216C132.671 12.2839 132.671 10.6463 132.671 8.90167C133.261 8.90167 133.727 8.90167 134.303 8.90167C134.303 10.0648 134.303 11.1922 134.303 12.2757C134.49 12.358 134.588 12.443 134.638 12.4183C137.233 11.2086 138.815 12.1742 138.868 15.0243C138.895 16.2944 138.876 17.5672 138.876 18.9689Z" fill="white"/>
<path d="M112.682 15.54C112.674 17.751 111.253 19.235 109.157 19.2213C107.111 19.2076 105.772 17.7729 105.761 15.5784C105.75 13.3592 107.152 11.8423 109.225 11.8286C111.34 11.8176 112.69 13.266 112.682 15.54ZM110.937 15.4742C110.926 14.0752 110.194 13.1124 109.165 13.1453C108.161 13.1755 107.448 14.1959 107.47 15.5647C107.492 16.9418 108.252 17.943 109.247 17.9073C110.227 17.8744 110.948 16.832 110.937 15.4742Z" fill="white"/>
<path d="M62.469 18.8153C61.1907 18.9524 59.9728 19.1582 58.7521 19.1883C57.7317 19.213 57.013 18.6232 56.8017 17.5973C56.5741 16.4973 56.9252 15.54 57.9593 15.0654C58.807 14.6786 59.7588 14.5195 60.6641 14.2562C60.3294 12.9669 59.9893 12.8709 57.2434 13.5265C57.4903 12.9313 57.5424 12.3552 57.8249 12.1989C60.1621 10.9151 62.4389 12.2729 62.4663 14.92C62.48 16.2395 62.469 17.5589 62.469 18.8153ZM60.697 15.6223C59.693 15.732 58.6095 15.614 58.486 16.917C58.4586 17.2188 59.1444 17.8908 59.4708 17.8689C60.7217 17.7948 60.9466 16.9061 60.697 15.6223Z" fill="white"/>
<path d="M146.644 15.9816C145.157 15.9816 143.723 15.9816 142.274 15.9816C142.557 17.7948 143.232 18.0801 146.482 17.6056C146.145 18.2173 146.024 18.8098 145.717 18.9332C142.73 20.121 140.176 18.1432 140.535 14.9777C140.768 12.9258 142.362 11.5844 144.269 11.8368C146.033 12.07 146.96 13.5759 146.644 15.9816ZM142.181 14.6457C143.281 14.6457 144.167 14.6457 145.053 14.6457C145.138 14.5168 145.226 14.3879 145.311 14.2562C144.823 13.8557 144.378 13.2056 143.835 13.1096C142.894 12.945 142.423 13.6582 142.181 14.6457Z" fill="white"/>
<path d="M73.7707 13.1947C74.012 12.8298 74.1739 12.273 74.5085 12.1303C77.0734 11.0413 78.9442 12.3196 78.9689 15.1203C78.9798 16.3465 78.9716 17.5754 78.9716 18.8318C77.6768 18.9552 76.3547 19.2542 75.0791 19.1225C74.4537 19.0594 73.6746 18.2968 73.3866 17.6604C72.9669 16.7305 73.3016 15.6881 74.2726 15.1944C75.1422 14.7527 76.138 14.558 77.0981 14.2508C76.9582 12.9917 76.415 12.8243 74.226 13.4525C74.0751 13.3647 73.9243 13.2797 73.7707 13.1947ZM77.205 15.5894C76.1435 15.7567 75.0188 15.6196 75.016 16.9884C75.016 17.2956 75.7128 17.8964 76.0365 17.8607C77.2818 17.729 77.4135 16.8183 77.205 15.5894Z" fill="white"/>
<path d="M99.9209 15.9185C98.5027 15.9185 97.0625 15.9185 95.6196 15.9185C95.6937 17.7454 96.3795 18.0499 99.6959 17.644C99.4518 18.1898 99.364 18.8208 99.1034 18.903C97.7236 19.3419 96.2945 19.4517 95.0546 18.5025C93.8311 17.5671 93.6089 16.2312 93.8531 14.7993C94.1987 12.7612 95.7349 11.568 97.6029 11.8423C99.3475 12.1001 100.253 13.6225 99.9209 15.9185ZM95.3453 14.1465C95.4112 14.2974 95.477 14.451 95.5428 14.6018C96.4728 14.6018 97.4027 14.6018 98.3326 14.6018C98.4204 14.4702 98.5081 14.3412 98.5932 14.2096C98.0939 13.8255 97.5865 13.1206 97.1009 13.1398C96.5029 13.1617 95.9296 13.7844 95.3453 14.1465Z" fill="white"/>
<path d="M120.656 18.9579C120.181 18.9579 119.74 18.9579 119.062 18.9579C119.062 17.6961 119.076 16.437 119.057 15.1779C119.043 14.2782 118.969 13.2961 117.784 13.2824C116.615 13.2687 116.292 14.1602 116.278 15.1697C116.262 16.3931 116.273 17.6193 116.273 18.936C115.672 18.936 115.205 18.936 114.651 18.936C114.651 16.6619 114.651 14.4427 114.651 12.2071C114.706 12.1632 114.789 12.048 114.835 12.0617C116.006 12.4019 117.112 12.0178 118.261 11.8779C119.553 11.7188 120.5 12.5719 120.615 13.8585C120.769 15.5235 120.656 17.2078 120.656 18.9579Z" fill="white"/>
<path d="M52.1522 17.046C52.6295 15.5565 53.0766 14.4071 53.3564 13.2166C53.6334 12.0453 54.2534 11.7408 55.4878 12.166C54.6868 14.2891 53.9215 16.4151 53.0574 18.5026C52.9422 18.7824 52.3469 18.9936 51.9739 18.9963C51.6639 18.9963 51.1784 18.7083 51.0686 18.4312C50.2676 16.3959 49.5435 14.3303 48.7699 12.2016C49.9028 11.7819 50.6078 11.8834 50.9123 13.1727C51.1921 14.3659 51.6529 15.5153 52.1522 17.046Z" fill="white"/>
<path d="M90.3007 8.8605C90.8932 8.8605 91.3348 8.8605 91.8533 8.8605C91.8533 12.2345 91.8533 15.5427 91.8533 18.9415C91.3321 18.9415 90.8603 18.9415 90.3007 18.9415C90.3007 15.5866 90.3007 12.2839 90.3007 8.8605Z" fill="white"/>
<path d="M128.822 10.4515C128.874 10.8877 128.924 11.3266 128.94 11.4692C129.618 11.9822 130.114 12.358 130.611 12.7311C130.114 13.0026 129.621 13.2769 129.044 13.5952C128.501 16.5742 128.787 17.5452 130.737 18.0308C130.389 18.4834 130.175 19.0567 129.848 19.1308C128.861 19.3502 127.791 19.1993 127.503 18.0555C127.242 17.0131 127.33 15.8857 127.237 14.7994C127.185 14.1849 127.56 13.362 126.491 13.1727C126.381 13.1535 126.266 12.6899 126.296 12.4513C126.364 11.9109 128.131 10.5146 128.822 10.4515Z" fill="white"/>
<path d="M70.8932 18.9662C70.4076 18.9662 69.9687 18.9662 69.4229 18.9662C69.4229 15.6058 69.4229 12.2949 69.4229 8.87698C69.8919 8.84406 70.3281 8.81389 70.8932 8.77548C70.8932 12.1715 70.8932 15.4824 70.8932 18.9662Z" fill="white"/>
<path d="M65.012 12.0727C65.5332 12.0727 65.9721 12.0727 66.5179 12.0727C66.5179 14.3413 66.5179 16.5879 66.5179 18.9387C66.0406 18.9387 65.5716 18.9387 65.012 18.9387C65.012 16.6427 65.012 14.3934 65.012 12.0727Z" fill="white"/>
<path d="M66.9513 10.2458C66.548 10.4899 66.1338 10.9398 65.7443 10.9151C65.4178 10.8959 64.8912 10.3418 64.8775 10.0071C64.8637 9.69991 65.4014 9.13757 65.7306 9.11288C66.1173 9.08271 66.5398 9.50789 66.9458 9.73557C66.9485 9.90564 66.9485 10.0757 66.9513 10.2458Z" fill="white"/>
<path d="M13.9872 37.9485C13.9872 30.3254 13.9872 22.7626 13.9872 15.123C19.125 15.123 24.1806 15.123 29.3486 15.123C29.3486 22.6968 29.3486 30.2568 29.3486 37.9485C24.3068 37.9485 19.2238 37.9485 13.9872 37.9485Z" fill="black"/>
<path d="M23.2479 40.8919C23.1793 41.948 22.6993 42.5569 21.7118 42.5624C20.738 42.5679 20.1674 41.9973 20.1619 41.0208C20.1564 40.0991 20.716 39.5724 21.6103 39.5148C22.6033 39.4463 23.0943 40.0415 23.2479 40.8919Z" fill="black"/>
<path d="M23.3851 12.4814C22.2549 12.4814 21.122 12.4814 19.9918 12.4814C19.9918 12.3689 19.9918 12.2565 19.9918 12.144C21.1247 12.144 22.2604 12.144 23.3933 12.144C23.3905 12.2565 23.3878 12.3689 23.3851 12.4814Z" fill="black"/>
<path d="M60.4226 35.1999C60.5488 34.3934 60.5845 33.5623 60.8204 32.7915C61.2373 31.4336 62.4525 30.5476 63.7747 30.5311C65.2066 30.5147 66.2188 31.2197 66.7894 32.5034C67.552 34.2179 67.53 35.9735 66.8278 37.6989C66.1859 39.2762 64.8116 40.036 63.2261 39.7837C61.7283 39.5423 60.653 38.275 60.5433 36.5907C60.5131 36.1353 60.5378 35.6772 60.5378 35.2219C60.4994 35.2109 60.461 35.2054 60.4226 35.1999Z" fill="black"/>
<path d="M75.2766 34.953C75.3726 34.3962 75.4028 33.4608 75.7018 32.6214C76.1709 31.3047 77.2078 30.5695 78.6287 30.5394C80.0003 30.5092 81.007 31.2005 81.5611 32.4184C82.4032 34.2645 82.3566 36.16 81.509 37.9897C80.8863 39.3338 79.5833 39.9729 78.124 39.7946C76.81 39.6328 75.7347 38.637 75.4522 37.2189C75.3287 36.5962 75.3479 35.9461 75.2766 34.953Z" fill="black"/>
<path d="M50.147 33.9984C48.5066 33.9984 47.0198 33.9984 45.3301 33.9984C46.1064 31.3595 46.8635 28.7865 47.6809 26.0105C48.5395 28.7865 49.3268 31.3376 50.147 33.9984Z" fill="black"/>
<path d="M122.228 35.0929C121.767 36.3219 121.512 37.5617 120.881 38.5657C119.669 40.4886 117.137 40.3844 115.856 38.4889C114.624 36.662 114.638 33.5129 115.889 31.7107C117.112 29.9441 119.71 29.8262 120.881 31.6256C121.523 32.6159 121.77 33.864 122.228 35.0929Z" fill="black"/>
<path d="M143.989 33.65C142.05 33.65 140.102 33.65 138.154 33.65C138.056 31.6887 139.468 30.1608 141.314 30.2102C143.056 30.2596 144.134 31.6147 143.989 33.65Z" fill="black"/>
<path d="M83.2728 15.5812C83.2701 14.0779 83.89 13.1946 84.9379 13.2111C85.9254 13.2276 86.6085 14.1547 86.614 15.4851C86.6194 16.9171 85.9364 17.8442 84.883 17.8333C83.8407 17.825 83.2756 17.035 83.2728 15.5812Z" fill="black"/>
<path d="M45.042 14.8871C44.5043 14.8871 44.1944 14.8871 43.8871 14.8871C43.5799 14.8871 43.2727 14.8871 42.7734 14.8871C43.141 13.6555 43.4674 12.5692 43.8817 11.1757C44.3096 12.55 44.6442 13.6143 45.042 14.8871Z" fill="black"/>
<path d="M110.937 15.4742C110.948 16.832 110.227 17.8744 109.247 17.9073C108.252 17.943 107.492 16.9417 107.47 15.5647C107.448 14.1931 108.161 13.1754 109.165 13.1453C110.194 13.1151 110.926 14.0779 110.937 15.4742Z" fill="black"/>
<path d="M60.697 15.6223C60.9466 16.9061 60.7189 17.7948 59.4708 17.8716C59.1444 17.8908 58.4586 17.2215 58.486 16.9198C58.6095 15.6141 59.693 15.732 60.697 15.6223Z" fill="black"/>
<path d="M142.181 14.6457C142.425 13.6582 142.897 12.945 143.835 13.1123C144.379 13.2084 144.823 13.8585 145.311 14.259C145.226 14.3879 145.138 14.5168 145.053 14.6485C144.165 14.6458 143.279 14.6457 142.181 14.6457Z" fill="black"/>
<path d="M77.205 15.5894C77.4135 16.8156 77.2818 17.729 76.0364 17.8607C75.7127 17.8963 75.016 17.2956 75.016 16.9884C75.0187 15.6196 76.1462 15.7567 77.205 15.5894Z" fill="black"/>
<path d="M95.3452 14.1465C95.9295 13.7844 96.5056 13.1617 97.1008 13.1398C97.5836 13.1233 98.0938 13.8256 98.5931 14.2096C98.5053 14.3413 98.4175 14.4702 98.3325 14.6019C97.4026 14.6019 96.4726 14.6019 95.5427 14.6019C95.4769 14.451 95.411 14.3001 95.3452 14.1465Z" fill="black"/>
</svg>
