<svg width="54" height="39" viewBox="0 0 54 39" fill="none" xmlns="http://www.w3.org/2000/svg">
<path d="M54 33.7722V5.21619C54 3.95552 53.5536 2.7411 52.7524 1.80427L52.7181 1.75801C52.6838 1.70018 52.638 1.64235 52.6036 1.60765C52.535 1.52669 52.4549 1.4573 52.3518 1.3879L52.3061 1.3532C51.3561 0.485765 50.12 0 48.8266 0H5.16193C3.77702 0 2.47223 0.543594 1.49936 1.52669C0.526494 2.50979 0 3.80516 0 5.21619V33.7722C0 34.4199 0.114455 35.056 0.343366 35.6575L0.366257 35.7153V35.7731C0.366257 36.1432 0.503603 36.4902 0.755405 36.7447C0.846969 36.8372 0.949979 36.9297 1.07588 36.9991L1.12166 37.0338L1.156 37.0801C2.14031 38.2945 3.5939 39 5.16193 39H48.964C50.5206 39 52.0199 38.2482 52.9813 36.9875L53.0042 36.9528L53.0386 36.9297C53.1073 36.8719 53.1759 36.8141 53.2332 36.7678C53.3934 36.5596 53.5078 36.3167 53.5536 36.0623L53.5651 36.0276L53.5765 35.9929C53.8855 35.2989 54.0229 34.5703 53.9886 33.8185L54 33.7722ZM48.861 3.00712L27.0572 22.484L5.26494 3.00712H48.861ZM2.98728 4.96174L17.958 18.3434L2.98728 32.6272V4.96174ZM49.3875 35.9004C49.2043 35.9466 49.0212 35.9813 48.8381 35.9813H5.16193C5.01314 35.9813 4.86435 35.9697 4.71556 35.9351L4.08605 35.7963L20.1785 20.3443L26.0844 25.6299C26.3705 25.919 26.6337 26.0231 27.0687 26.0231C27.2976 26.0231 27.6867 25.8612 28.0873 25.5952L33.9017 20.4021L49.9941 35.75L49.3875 35.9004ZM51.0242 32.6272L36.1106 18.4012L51.0242 5.06584V32.6272Z" fill="white"/>
</svg>
