<svg width="177" height="53" viewBox="0 0 177 53" fill="none" xmlns="http://www.w3.org/2000/svg">
<path d="M171.576 1.07007C173.628 0.987778 175.647 2.70771 175.702 4.58126C175.392 4.91043 175.389 5.32465 175.389 5.73886C175.389 19.5861 175.389 33.4306 175.395 47.2779C175.395 47.7085 175.244 48.2407 175.921 48.3559C175.024 50.8439 173.458 52.0125 170.943 52.0125C115.973 52.0152 61.0012 52.0125 6.03185 52.0097C5.71365 52.0097 5.39545 51.9713 5.07999 51.9494C5.65604 51.3733 6.38297 51.6614 7.03309 51.6614C61.4565 51.6449 115.877 51.6477 170.301 51.6367C170.781 51.6367 171.305 51.815 171.938 51.3733C171.302 51.3733 170.852 51.3733 170.402 51.3733C116.209 51.3733 62.0134 51.3733 7.82036 51.3733C7.04406 51.3733 6.26776 51.3733 5.48871 51.3733C5.07176 51.3733 4.63835 51.3377 4.53959 51.9055C2.33138 51.2664 1.0092 49.8509 0.710203 47.5357C1.61269 47.3108 1.23688 46.5729 1.23962 46.0627C1.25334 32.9999 1.2506 19.94 1.24237 6.88273C1.24237 6.45481 1.38227 5.99671 0.973542 5.37402C0.973542 6.08723 0.973542 6.57825 0.973542 7.06927C0.973542 19.8522 0.976285 32.6379 0.962569 45.4208C0.962569 45.942 1.17379 46.5262 0.701973 46.9789C0.685515 41.5118 0.660827 36.0448 0.65534 30.575C0.647111 22.5075 0.649854 14.4428 0.65534 6.37526C0.65534 3.32491 2.09548 1.56109 5.08547 0.927429C5.2336 1.68179 5.84257 1.45136 6.29519 1.45685C8.21263 1.4788 10.1328 1.46508 12.053 1.46508C64.5974 1.46508 117.142 1.46508 169.686 1.44862C170.314 1.44862 171.066 1.78328 171.576 1.07007ZM82.9516 19.0101C83.3219 18.9662 83.5139 18.7687 83.5112 18.3819C83.5057 16.5851 83.5084 14.7884 83.5084 12.9917C83.2423 13.4799 83.2835 13.9737 83.2341 14.4565C83.1271 15.5181 83.5359 16.6208 82.9763 17.6412C82.9625 16.3739 82.9653 15.1039 82.9241 13.8365C82.9077 13.2769 83.2369 12.5061 82.1177 12.5336C81.1027 12.5555 81.3825 13.2468 81.3743 13.7734C81.3523 15.1779 81.3633 16.5851 81.3688 17.9896C81.3743 19.4133 81.4429 19.4572 82.9516 19.0101ZM102.757 19.0073C103.286 19.3612 103.818 19.3749 104.353 19.0128C104.644 18.9634 104.888 18.8455 104.888 18.5053C104.896 15.8637 104.896 13.2193 104.902 10.5777C104.902 10.18 104.68 10.0071 104.307 9.98794C103.807 9.99343 103.305 9.99891 102.806 10.0044C102.233 9.99069 102.164 10.3637 102.164 10.8136C102.167 13.255 102.167 15.6936 102.164 18.135C102.162 18.5684 102.189 18.9689 102.757 19.0073ZM87.752 16.5989C86.9483 16.4864 87.0827 15.8664 87.08 15.3343C87.0717 13.661 87.0772 11.9877 87.0772 10.3144C87.0086 10.3171 86.9373 10.3199 86.8687 10.3226C86.8687 13.1124 86.8687 15.9048 86.8687 18.8043C87.1705 18.4395 87.368 18.1185 87.7822 18.1185C88.6353 19.2816 89.9986 19.6739 91.159 19.0073C91.6527 18.722 91.9655 18.3106 92.3989 19.1198C92.5388 19.3804 93.2465 19.4544 93.4166 18.7879C93.6031 18.8372 93.85 18.829 93.8527 18.6288C93.8884 17.1804 93.9021 15.7293 93.8829 14.2809C93.8801 13.9874 93.6195 13.9737 93.3891 14.13C92.5278 12.4951 91.0575 12.0178 89.1208 12.753C88.8301 12.8627 88.4351 12.9313 88.4954 13.3373C88.553 13.735 88.7121 14.1493 89.2717 14.0697C89.2964 14.4921 89.3211 14.9118 89.3458 15.3343C88.6655 15.5647 88.0922 15.935 87.752 16.5989ZM109.62 24.7953C108.926 24.8337 109.022 25.3549 109.022 25.7993C109.019 30.2294 109.019 34.6623 109.022 39.0924C109.022 39.5368 108.923 40.058 109.617 40.0991C110.413 40.2829 111.211 40.2692 112.012 40.1128C112.78 40.0086 112.596 39.3996 112.574 38.947C112.47 36.9253 112.783 34.9174 112.627 32.882C112.451 30.5805 112.594 28.2544 112.577 25.9419C112.574 25.4865 112.78 24.8803 112.009 24.7788C111.214 24.6252 110.416 24.5978 109.62 24.7953ZM141.289 40.0388C142.104 40.0498 142.922 40.0635 143.736 40.0744C144.436 40.1074 144.397 39.6136 144.397 39.15C144.397 34.6952 144.4 30.2376 144.397 25.7828C144.397 25.3357 144.48 24.8227 143.786 24.8008C142.944 24.6307 142.104 24.5649 141.267 24.8447C140.579 24.7651 140.562 25.2287 140.562 25.7142C140.562 30.2102 140.565 34.7089 140.562 39.2049C140.562 39.6931 140.604 40.1458 141.289 40.0388ZM96.3023 33.5897C96.1515 33.2633 96.0116 32.9286 95.847 32.6077C94.437 29.8454 90.9368 28.8002 88.2266 30.3281C85.5493 31.8369 84.6852 35.4468 86.4298 38.0418C87.6615 39.8769 89.4582 40.6011 91.6281 40.368C94.0228 40.1128 95.4547 38.6645 96.2749 36.5002C96.7357 36.4974 97.1966 36.4919 97.6574 36.4892C99.0454 40.0964 101.616 41.1415 105.426 39.6109C105.522 40.8727 105.357 42.0111 104.098 42.631C102.804 43.2702 101.462 42.9767 100.486 41.7038C99.6489 40.6148 98.9659 41.531 98.3871 41.83C97.5641 42.2525 98.3898 42.7956 98.6367 43.1193C99.9644 44.8667 101.736 45.5662 103.923 45.1108C106.482 44.5786 107.615 42.8395 107.928 40.3981C108.314 40.5051 108.007 41.0921 108.479 41.1909C108.479 37.7977 108.482 34.4373 108.474 31.0743C108.474 30.6025 108.616 29.9962 107.801 30.0346C106.792 29.7494 105.708 30.5942 104.891 30.2267C101.498 28.6987 98.5928 30.6738 97.6519 33.6089C97.1993 33.6034 96.7522 33.5952 96.3023 33.5897ZM145.7 35.5017C145.347 36.8101 145.47 38.0418 146.372 39.1006C147.7 40.656 150.375 40.9276 152.232 39.737C152.49 39.5725 152.649 39.0211 153.063 39.7809C153.48 40.5463 154.476 40.0991 155.189 40.0607C155.847 40.0251 155.548 39.3338 155.556 38.9388C155.592 37.2545 155.592 35.5675 155.57 33.8805C155.545 32.0453 155.054 30.4159 153.211 29.6204C151.236 28.7701 149.214 28.6356 147.324 29.8344C145.654 30.8932 145.706 31.5132 147.398 32.3608C146.715 33.2523 146.013 34.1301 145.363 35.0463C145.19 35.2932 145.473 35.4303 145.7 35.5017ZM132.602 34.3907C133.45 35.2356 135.095 35.1396 135.57 34.2179C137.191 33.683 138.522 32.8079 139.139 31.1209C140.261 28.0541 138.428 25.3576 134.736 24.6307C134.816 24.3482 135.079 23.9669 134.492 23.9614C132.895 23.9422 131.294 23.8983 129.7 23.9696C128.679 24.0162 129.809 24.4085 129.65 24.6252C129.373 24.6828 129.096 24.7404 128.822 24.7953C128.133 24.8309 128.224 25.3439 128.224 25.7883C128.221 30.2349 128.221 34.6815 128.224 39.1308C128.224 39.5889 128.172 40.0854 128.863 40.0772C129.222 40.0882 129.59 40.0607 129.941 40.1183C131 40.2911 131.362 39.8907 131.263 38.8153C131.165 37.7428 131.326 36.6455 131.219 35.5757C131.096 34.3962 131.606 34.163 132.602 34.3907ZM15.8165 33.5541C15.6904 36.0119 15.6931 38.4725 15.7973 40.9303C15.7919 41.8767 15.715 42.8285 15.8001 43.7667C15.8988 44.8475 16.4694 45.5113 17.6819 45.333C18.3512 45.7088 18.8888 45.3632 19.4567 45.045C24.1035 42.4363 28.7723 39.8605 33.4054 37.2243C36.047 35.7184 38.8121 34.4236 41.3001 32.6543C43.9253 31.4089 46.4709 30.0045 48.9013 28.4299C50.3085 27.5165 50.122 25.7609 48.5995 24.8639C46.2816 23.4978 43.9033 22.2332 41.5525 20.9247C39.3196 19.8001 37.136 18.5547 35.0101 17.2764C30.0506 14.3001 24.9676 11.568 19.8846 8.8276C19.1577 8.24606 18.3786 7.84557 17.4076 8.11165C16.4008 8.46003 15.8001 9.15952 15.7973 10.2321C15.7891 15.7128 15.8111 21.1936 15.822 26.6743C15.8275 27.6865 15.833 28.6987 15.8385 29.7109C15.8385 29.9825 15.8357 30.2541 15.8357 30.5284C15.833 30.9865 15.833 31.4446 15.8303 31.9027C15.8248 32.4513 15.822 33.0027 15.8165 33.5541ZM65.2036 33.6994C65.1789 34.1575 65.3984 34.3605 65.851 34.3605C67.1046 34.355 68.3609 34.3578 70.015 34.3578C68.3417 33.7708 66.9263 34.5279 65.6864 33.8009C66.9647 33.7845 68.243 33.7872 69.5185 33.7406C70.1467 33.7186 70.2921 33.9161 70.1577 34.5361C69.8422 36.0064 68.9342 36.9583 67.6285 37.559C65.1488 38.7001 62.1066 37.9101 60.4937 35.7485C58.8341 33.5266 58.952 30.2075 60.7652 28.1419C62.5976 26.0544 65.6562 25.5853 68.125 27.0145C69.0577 27.5549 70.111 27.3519 70.5225 26.4028C70.8764 25.5798 69.9382 25.4372 69.513 25.0915C69.0632 24.7267 68.4981 24.4716 67.9467 24.2714C64.729 23.0918 61.2288 24.0053 58.8368 26.6167C56.593 29.0691 56.0389 32.4211 57.3885 35.3974C58.8396 38.5959 61.9146 40.5682 65.3133 40.4941C70.9203 40.3707 73.8088 35.466 72.5442 31.376C72.4976 30.9097 72.1958 30.8027 71.7843 30.8055C69.9245 30.8109 68.0647 30.8109 66.2048 30.8055C65.8071 30.8055 65.4779 30.8713 65.4176 31.3486C64.8882 32.0892 65.2612 32.9149 65.2036 33.6994ZM162.159 36.5962C161.262 34.5279 160.469 32.7887 159.759 31.0167C159.323 29.9277 158.62 29.4641 157.449 29.5189C156.571 29.5601 156.308 29.7439 156.725 30.6381C157.844 33.0301 158.867 35.466 159.973 37.8607C160.59 39.1994 160.648 40.453 159.869 41.7587C159.279 42.749 158.749 43.7914 158.475 45.0175C159.169 45.0175 159.762 44.9956 160.351 45.023C160.856 45.0477 161.172 44.9298 161.399 44.4003C163.415 39.7206 165.465 35.0518 167.503 30.383C167.607 30.1416 167.815 29.8838 167.533 29.6506C166.946 29.1706 164.792 29.8015 164.507 30.5339C163.767 32.4349 163.034 34.3386 162.159 36.5962ZM79.3444 40.4118C82.381 40.4064 84.7648 38.0857 84.8032 35.0902C84.8443 32.07 82.392 29.6369 79.3142 29.6451C76.2008 29.6533 73.8691 32.0042 73.8965 35.1149C73.9212 38.1296 76.2721 40.4173 79.3444 40.4118ZM118.637 40.4393C120.195 40.4283 121.794 39.7178 122.631 38.6508C122.847 38.3737 123.234 38.0281 122.793 37.7346C122.112 37.2792 121.536 36.4727 120.48 37.3862C119.238 38.4615 117.882 38.4341 116.991 37.6331C116.382 37.0844 116.077 36.6455 117.18 36.2368C119.015 35.5593 120.807 34.7693 122.612 34.0122C122.963 33.864 123.454 33.7955 123.108 33.1673C122.398 31.8753 121.673 30.6217 120.217 30.0127C118.428 29.2666 116.217 29.6506 114.898 31.0359C113.216 32.8052 112.937 34.9037 113.749 37.1283C114.503 39.1966 116.453 40.453 118.637 40.4393ZM66.9537 19.0759C65.9443 16.352 64.9293 13.6363 63.9335 10.9124C63.7141 10.3171 63.2368 10.468 62.7952 10.4296C62.2438 10.3802 62.0024 10.6189 61.8159 11.1373C60.9573 13.532 60.0328 15.9021 59.1742 18.2968C59.081 18.5547 58.5872 19.0128 59.1742 19.1829C59.5885 19.3036 60.1947 19.5011 60.5184 18.9086C60.6692 18.6315 60.8119 18.3243 60.8503 18.0198C61.0615 16.4398 62.252 16.8841 63.2341 16.7799C64.2133 16.6757 64.7455 16.9993 64.9211 17.9814C65.1213 19.0677 65.7166 19.5587 66.9537 19.0759ZM96.6973 13.2193C96.6973 12.2867 96.6781 11.4637 96.7056 10.6435C96.722 10.1306 96.5711 9.88919 96.0143 9.92485C95.5781 9.95228 95.2133 9.91936 95.2188 10.5475C95.2407 13.2413 95.2325 15.9378 95.2243 18.6342C95.2215 19.1253 95.633 19.4517 95.8717 19.2048C96.7357 18.316 97.4544 19.1911 98.228 19.2624C99.509 19.3804 100.458 18.9332 100.988 17.7208C101.643 16.2176 101.319 13.9847 100.324 13.0904C99.4103 12.2784 98.228 12.2976 96.6973 13.2193ZM79.5967 16.6263C79.5967 16.3081 79.5967 15.9871 79.5967 15.6689C79.5913 12.8627 77.9426 11.7463 75.2873 12.7557C74.917 12.8956 74.4616 12.9725 74.7277 13.5924C74.9526 14.1191 75.2544 14.0834 75.707 13.9161C76.0828 13.7789 76.5052 13.7405 76.9085 13.7131C77.5476 13.6665 77.9838 13.96 78.0359 14.6211C78.11 15.5482 77.3638 15.1477 76.9743 15.1752C76.3324 15.2218 75.6933 15.263 75.1008 15.5126C74.3217 15.839 73.8801 16.4096 73.8856 17.3066C73.8965 19.1033 75.7235 19.9153 77.5339 18.9168C77.8274 18.7549 78.1648 18.0554 78.4172 18.9991C78.516 19.3667 78.9658 19.2679 79.2621 19.2076C79.5967 19.139 79.594 18.8235 79.594 18.5465C79.5995 17.9046 79.5995 17.2654 79.5967 16.6263ZM109.447 16.2395C111.656 16.2395 111.656 16.2395 111.719 15.5812C111.859 14.13 110.811 12.753 109.376 12.5116C109.285 12.4952 109.195 12.4951 109.104 12.4897C107.692 12.3772 106.545 13.0465 106.029 14.2864C105.396 15.8116 105.739 17.6248 106.839 18.5739C107.673 19.2926 110.133 19.523 111.005 19.0046C111.409 18.7659 111.433 18.4313 111.359 18.0719C111.244 17.5068 110.882 17.8579 110.621 17.921C109.818 18.1131 109.014 18.3051 108.213 17.9238C107.667 17.6632 107.332 17.1749 107.39 16.6153C107.464 15.8911 108.111 16.341 108.493 16.2532C108.797 16.1819 109.129 16.2368 109.447 16.2395ZM123.709 15.8966C123.709 16.7196 123.717 17.5397 123.706 18.3627C123.701 18.8537 123.706 19.2322 124.4 19.2487C125.13 19.2652 125.19 18.9195 125.201 18.3352C125.223 17.1996 125.053 16.0557 125.33 14.9256C125.558 13.9929 126.183 13.6911 127.064 13.7652C127.914 13.8365 128.051 14.4537 128.062 15.1368C128.081 16.2313 128.101 17.3285 128.081 18.423C128.073 18.9799 128.218 19.2405 128.844 19.246C129.502 19.2542 129.593 18.947 129.582 18.4121C129.56 17.2709 129.587 16.1298 129.574 14.9859C129.549 12.9258 127.919 11.8999 126.013 12.7283C125.602 12.9066 125.27 13.4991 124.729 12.6927C124.469 12.3031 123.679 12.3937 123.701 13.2907C123.723 14.163 123.706 15.0298 123.709 15.8966ZM122.214 15.9597C122.233 13.8009 121.032 12.4732 119.065 12.4842C117.123 12.4951 115.921 13.7625 115.902 15.8226C115.883 17.9375 117.114 19.2652 119.089 19.2652C121.089 19.2652 122.195 18.0966 122.214 15.9597ZM70.1659 17.4629C70.0315 17.1475 69.9327 16.9527 69.8642 16.747C69.45 15.5455 69.0275 14.344 68.6325 13.1343C68.3637 12.3114 67.6532 12.4293 67.1677 12.6104C66.5889 12.8271 67.121 13.3126 67.2308 13.6281C67.8068 15.2575 68.4432 16.8677 69.0385 18.4889C69.2332 19.0155 69.5103 19.2844 70.133 19.2597C70.7145 19.2377 71.019 19.0896 71.2247 18.4998C71.7953 16.8704 72.4784 15.2794 73.0434 13.6473C73.1477 13.3455 73.8307 12.7969 72.9831 12.5774C72.4317 12.4348 71.8419 12.4211 71.6033 13.255C71.211 14.632 70.6871 15.9679 70.1659 17.4629ZM84.8498 14.4894C84.8498 15.7677 84.8663 17.046 84.8416 18.3243C84.8306 18.9003 84.8964 19.2679 85.6371 19.2514C86.3366 19.235 86.3256 18.8455 86.3256 18.3599C86.3201 15.85 86.3092 13.34 86.3311 10.8301C86.3366 10.2403 86.2625 9.90291 85.5356 9.91662C84.8388 9.93034 84.8416 10.3061 84.8443 10.7944C84.8553 12.0261 84.8498 13.2577 84.8498 14.4894ZM82.9927 10.9727C82.9982 10.4323 82.7212 10.0977 82.1917 10.0812C81.7501 10.0675 81.4127 10.2952 81.3468 10.7862C81.2728 11.343 81.5718 11.6832 82.0738 11.7463C82.5895 11.8121 82.9241 11.5159 82.9927 10.9727ZM94.5604 18.6973C94.6235 18.6864 94.6866 18.6726 94.7497 18.6617C94.7497 15.9515 94.7497 13.2413 94.7497 10.5311C94.6866 10.5311 94.6235 10.5311 94.5604 10.5311C94.5604 13.2523 94.5604 15.9734 94.5604 18.6973ZM84.2738 10.3034C84.2271 10.3061 84.1832 10.3116 84.1366 10.3144C84.1366 12.8408 84.1366 15.3699 84.1366 17.8963C84.1832 17.8963 84.2271 17.8963 84.2738 17.8963C84.2738 15.3645 84.2738 12.8353 84.2738 10.3034ZM156.124 33.0548C156.078 33.0603 156.031 33.063 155.984 33.0685C155.984 35.3234 155.984 37.5782 155.984 39.833C156.031 39.833 156.078 39.833 156.124 39.833C156.124 37.5755 156.124 35.3151 156.124 33.0548ZM80.8257 18.6919C80.8695 18.6864 80.9134 18.6809 80.9601 18.6754C80.9601 16.7991 80.9601 14.9228 80.9601 13.0438C80.9162 13.0438 80.8723 13.0465 80.8257 13.0465C80.8257 14.9283 80.8257 16.8101 80.8257 18.6919ZM131.979 34.9503C131.946 34.9503 131.911 34.953 131.878 34.953C131.878 36.4645 131.878 37.976 131.878 39.4874C131.911 39.4847 131.946 39.4847 131.979 39.4819C131.979 37.9732 131.979 36.4618 131.979 34.9503ZM80.0164 18.722C80.0576 18.722 80.1015 18.722 80.1426 18.722C80.1426 17.2846 80.1426 15.8472 80.1426 14.4126C80.1015 14.4126 80.0576 14.4126 80.0164 14.4126C80.0164 15.85 80.0164 17.2874 80.0164 18.722Z" fill="#020202"/>
<path d="M4.53406 51.9C4.63281 51.3349 5.06622 51.3679 5.48318 51.3679C6.25948 51.3679 7.03578 51.3679 7.81483 51.3679C62.0078 51.3679 116.204 51.3679 170.397 51.3679C170.846 51.3679 171.296 51.3679 171.933 51.3679C171.302 51.8067 170.778 51.6312 170.295 51.6312C115.872 51.6422 61.451 51.6394 7.02755 51.6559C6.38017 51.6559 5.65325 51.3679 5.07445 51.9439C4.89341 51.9302 4.7151 51.9137 4.53406 51.9Z" fill="#212121"/>
<path d="M171.576 1.07006C171.066 1.78327 170.314 1.44861 169.683 1.44861C117.142 1.46507 64.5974 1.46507 12.053 1.46507C10.1328 1.46507 8.21534 1.47879 6.29516 1.45684C5.83981 1.45135 5.23083 1.68452 5.08545 0.927419C5.26924 0.924676 5.45303 0.921933 5.63682 0.919189C6.13058 1.4349 6.76424 1.1743 7.32383 1.1743C61.4373 1.18801 115.551 1.18801 169.664 1.18527C170.257 1.18527 170.852 1.14961 171.444 1.13041C171.472 1.07829 171.516 1.05635 171.576 1.07006Z" fill="#212121"/>
<path d="M171.442 1.13041C170.849 1.14961 170.254 1.18527 169.662 1.18527C115.548 1.19076 61.4346 1.19076 7.32117 1.17704C6.76158 1.17704 6.12792 1.43764 5.63416 0.921931C6.18004 0.905472 6.72866 0.878041 7.27454 0.878041C61.4922 0.875298 115.71 0.875298 169.928 0.889013C170.432 0.889013 171.008 0.633904 171.442 1.13041Z" fill="#020202"/>
<path d="M175.729 4.59222C176.261 4.9214 176.132 5.46179 176.132 5.94184C176.138 19.6437 176.138 33.3456 176.13 47.0474C176.13 47.3108 176.047 47.5769 176.004 47.8402C175.425 47.3848 175.669 46.7402 175.669 46.1834C175.655 33.0027 175.658 19.822 175.661 6.64133C175.661 5.9583 175.705 5.27526 175.729 4.59222Z" fill="#020202"/>
<path d="M175.729 4.59221C175.705 5.27525 175.661 5.95828 175.661 6.64132C175.655 19.822 175.655 33.0027 175.669 46.1833C175.669 46.7429 175.422 47.3848 176.004 47.8402C175.976 48.0103 175.946 48.1831 175.919 48.3531C175.241 48.2407 175.392 47.7058 175.392 47.2751C175.386 33.4306 175.389 19.5833 175.386 5.73883C175.386 5.32462 175.389 4.91315 175.699 4.58124C175.702 4.58124 175.729 4.59221 175.729 4.59221Z" fill="#161616"/>
<path d="M0.699219 46.9788C1.17103 46.5262 0.959815 45.9419 0.959815 45.4207C0.97353 32.6378 0.970787 19.8522 0.970787 7.06924C0.970787 6.57822 0.970787 6.0872 0.970787 5.37399C1.38225 5.99668 1.23961 6.45478 1.23961 6.88271C1.25059 19.9399 1.25333 32.9999 1.23413 46.0572C1.23413 46.5674 1.60719 47.3053 0.704705 47.5302C0.701962 47.3464 0.701962 47.1626 0.699219 46.9788Z" fill="#212121"/>
<path d="M15.8303 31.8999C15.833 31.4418 15.833 30.9837 15.8357 30.5256C16.0415 30.4817 16.2527 30.4433 16.2856 30.18C16.3268 29.8453 16.0991 29.7603 15.8385 29.7082C15.833 28.696 15.8275 27.6838 15.822 26.6716C16.2938 25.8157 16.0497 24.8858 16.0332 23.997C16.0168 22.9299 16.3898 22.5432 17.4706 22.5596C20.8035 22.609 24.1364 22.5788 27.4693 22.5761C28.6571 22.5761 29.8119 22.3539 30.9476 22.0247C32.5495 23.5801 34.1515 25.1354 35.7535 26.6908C35.7617 26.7785 35.7809 26.8608 35.8139 26.9431C34.4642 28.2324 33.1119 29.5244 31.7623 30.8137C31.6471 30.9097 31.5346 31.0057 31.4194 31.1044L31.4413 31.0852C31.3398 31.1758 31.2411 31.269 31.1396 31.3595L31.1478 31.3541C30.7199 31.3623 30.2728 31.3458 30.3962 31.9959L30.4099 31.9795C29.1399 31.963 27.8451 31.7765 26.6052 31.9603C22.998 32.4925 19.4182 31.8999 15.8303 31.8999Z" fill="#44CECD"/>
<path d="M30.9476 22.0275C29.812 22.3594 28.6544 22.5788 27.4666 22.5788C24.1337 22.5816 20.8008 22.6117 17.468 22.5624C16.3899 22.5459 16.0141 22.9354 16.0306 23.9998C16.0443 24.8858 16.2884 25.8157 15.8193 26.6743C15.8084 21.1936 15.7864 15.7128 15.7947 10.2321C15.7974 9.1595 16.3981 8.46275 17.4049 8.11163C18.0742 9.2418 18.9794 10.1361 20.0986 10.8191L20.1343 10.8493C20.1699 11.0523 20.2385 11.2278 20.4634 11.2909L20.4881 11.3156C20.5485 11.5378 20.724 11.6091 20.9215 11.6475L20.9654 11.6804C21.0395 11.7545 21.1163 11.8313 21.1904 11.9054L21.2397 11.9547C21.3138 12.0288 21.3879 12.1029 21.4647 12.1797L21.5003 12.2373C21.5771 12.5774 21.7472 12.838 22.1011 12.9423C22.2904 13.1315 22.4796 13.3236 22.6662 13.5128C22.7402 13.7871 22.9185 13.96 23.1874 14.0423C23.9664 14.9228 24.6604 15.8993 25.5409 16.6592C27.4776 18.3243 29.1975 20.1896 30.9476 22.0275Z" fill="#2DADC2"/>
<path d="M31.7623 30.8137C33.1119 29.5244 34.4643 28.2324 35.8139 26.9431C36.9523 28.0376 38.1318 29.0937 39.2181 30.2376C39.9478 31.0084 40.9545 31.5516 41.3029 32.6543C38.8121 34.4236 36.0498 35.7184 33.4054 37.2243C28.775 39.8632 24.1063 42.4363 19.4567 45.045C18.8889 45.3632 18.3512 45.7088 17.6819 45.333C20.0327 42.439 22.8911 40.0278 25.412 37.2957C27.0633 35.5099 29.0494 34.0396 30.4072 31.9795C30.4072 31.9795 30.3935 31.996 30.3907 31.996C30.8269 32.0015 31.0052 31.7025 31.1424 31.3541L31.1341 31.3596C31.2356 31.269 31.3344 31.1758 31.4359 31.0853L31.4139 31.1045C31.5319 31.0084 31.6471 30.9097 31.7623 30.8137Z" fill="#CE4A7C"/>
<path d="M22.6717 13.5156C22.4824 13.3263 22.2931 13.1343 22.1066 12.945C22.0682 12.5719 22.1038 12.1358 21.5058 12.24L21.4702 12.1824C21.4757 12.0288 21.3988 11.9547 21.2452 11.9575L21.1959 11.9081C21.2013 11.7545 21.1245 11.6777 20.9709 11.6832L20.927 11.6502C20.8914 11.3951 20.7021 11.3403 20.4909 11.3183L20.4662 11.2936C20.4442 11.0824 20.3894 10.8931 20.137 10.852L20.1014 10.8218C20.5128 10.1059 19.5856 9.53531 19.8846 8.83307C24.9676 11.5734 30.0506 14.3056 35.0102 17.2819C37.1361 18.5574 39.3224 19.8055 41.5553 20.9302C39.8984 22.716 38.2416 24.5017 36.582 26.2848C36.3598 26.5262 36.1019 26.7017 35.7563 26.6962C34.1543 25.1409 32.5524 23.5855 30.9504 22.0302C29.2003 20.1923 27.4803 18.3297 25.5492 16.6647C24.6686 15.9048 23.9746 14.9255 23.1956 14.0477C23.1682 13.7213 22.9953 13.543 22.6717 13.5156Z" fill="#B4EBB6"/>
<path d="M72.5442 31.376C73.8088 35.466 70.9203 40.3707 65.3134 40.4941C61.9146 40.5682 58.8396 38.5959 57.3885 35.3974C56.0389 32.4239 56.5903 29.0718 58.8369 26.6167C61.2261 24.0053 64.7263 23.0918 67.9468 24.2714C68.4981 24.4743 69.0659 24.7267 69.5131 25.0915C69.9355 25.4372 70.8764 25.5798 70.5225 26.4028C70.1138 27.3519 69.0577 27.5549 68.1251 27.0145C65.6563 25.5853 62.6004 26.0516 60.7653 28.1419C58.9521 30.2075 58.8341 33.5266 60.4937 35.7485C62.1067 37.9101 65.1488 38.6974 67.6286 37.559C68.9343 36.9583 69.8423 36.0064 70.1577 34.5361C70.2921 33.9134 70.144 33.7186 69.5186 33.7406C68.243 33.7872 66.962 33.7845 65.6864 33.8009C65.5273 33.768 65.3655 33.7351 65.2064 33.7022C65.2612 32.9177 64.8882 32.092 65.4203 31.3486C67.7931 31.3568 70.1687 31.3678 72.5442 31.376Z" fill="#F2F2F2"/>
<path d="M30.41 31.9795C29.0521 34.0396 27.0634 35.5099 25.4147 37.2956C22.8938 40.025 20.0355 42.4362 17.6846 45.333C16.4749 45.5113 15.9016 44.8474 15.8029 43.7667C15.7178 42.8285 15.7946 41.8767 15.8001 40.9303C16.2061 38.4724 16.1979 36.0146 15.8193 33.554C15.8221 33.0027 15.8276 32.4513 15.8303 31.8999C19.421 31.8999 22.9981 32.4924 26.6053 31.9603C27.8452 31.7792 29.1399 31.963 30.41 31.9795Z" fill="#56E5D5"/>
<path d="M107.922 40.4009C107.61 42.8395 106.477 44.5786 103.917 45.1135C101.731 45.5689 99.959 44.8721 98.6313 43.122C98.3844 42.7983 97.5587 42.2552 98.3817 41.8328C98.9605 41.5338 99.6435 40.6176 100.48 41.7066C101.459 42.9794 102.798 43.2729 104.093 42.6337C105.352 42.0138 105.517 40.8754 105.421 39.6136C101.61 41.1442 99.0428 40.0991 97.652 36.4919C97.5944 36.149 97.534 35.8034 97.4764 35.4605C97.4737 35.2795 97.4737 35.0984 97.4709 34.9174C97.5286 34.4812 97.5889 34.0451 97.6465 33.6062C98.5874 30.671 101.492 28.696 104.886 30.2239C105.7 30.5915 106.787 29.7493 107.796 30.0319C107.84 33.4909 107.881 36.9445 107.922 40.4009ZM105.643 35.06C105.648 33.255 104.504 31.9082 102.935 31.8643C101.347 31.8204 100 33.2523 99.9727 35.0051C99.948 36.7251 101.284 38.1844 102.886 38.1926C104.458 38.2009 105.64 36.8567 105.643 35.06Z" fill="#F2F2F2"/>
<path d="M35.7535 26.6908C36.0992 26.6963 36.357 26.518 36.5792 26.2793C38.2361 24.4935 39.8956 22.7105 41.5525 20.9247C43.9061 22.2332 46.2816 23.4978 48.5996 24.8639C50.122 25.7609 50.3085 27.5165 48.9013 28.4299C46.4709 30.0072 43.9253 31.4117 41.3001 32.6543C40.9517 31.5516 39.945 31.0084 39.2154 30.2376C38.1291 29.0937 36.9495 28.0376 35.8111 26.9431C35.781 26.8608 35.7618 26.7786 35.7535 26.6908Z" fill="#F9AF87"/>
<path d="M134.736 24.6334C138.431 25.3603 140.264 28.0568 139.139 31.1236C138.522 32.8079 137.191 33.6857 135.57 34.2206C134.58 34.2782 133.592 34.3358 132.602 34.3934C131.606 34.1657 131.096 34.4017 131.214 35.5812C131.321 36.651 131.159 37.7483 131.258 38.8208C131.357 39.8961 130.997 40.2966 129.936 40.1238C129.585 40.0662 129.217 40.0936 128.858 40.0826C128.844 34.9887 128.83 29.8947 128.817 24.8007C129.094 24.7431 129.371 24.6855 129.645 24.6307C130.265 24.7486 130.879 24.7267 131.488 24.5594C131.59 24.5594 131.691 24.5594 131.796 24.5566C132.778 24.5813 133.757 24.606 134.736 24.6334ZM136.091 28.002C135.993 27.4259 135.559 27.3052 135.076 27.2504C134.626 27.1406 134.171 27.083 133.713 27.201C133.444 27.1598 133.156 27.009 132.956 27.3409C132.662 27.1351 132.339 27.19 132.018 27.2339C131.661 27.1845 131.269 27.0528 131.274 27.6591C131.283 28.8386 131.288 30.0182 131.272 31.1977C131.263 31.6668 131.447 31.8506 131.914 31.8286C132.953 31.7847 134.001 31.8176 135.035 31.7189C135.96 31.6311 136.486 30.9289 136.681 30.1169C136.859 29.379 136.972 28.5314 136.08 28.0431L136.091 28.002Z" fill="#F2F2F2"/>
<path d="M147.398 32.3608C145.703 31.5104 145.654 30.8932 147.324 29.8344C149.217 28.6356 151.239 28.77 153.211 29.6204C155.054 30.4159 155.548 32.0481 155.57 33.8805C155.592 35.5647 155.592 37.2518 155.556 38.9388C155.548 39.3338 155.847 40.025 155.189 40.0607C154.476 40.0991 153.48 40.5462 153.063 39.7809C152.649 39.0183 152.49 39.5724 152.232 39.737C150.375 40.9248 147.7 40.6532 146.372 39.1006C145.467 38.0418 145.344 36.8101 145.7 35.5016C147.415 32.6351 150.076 32.7229 152.89 33.3154C152.394 31.4528 150.32 30.7561 148.817 31.889C148.372 32.2209 148.013 32.6214 147.398 32.3608ZM150.882 35.0655C150.676 35.0792 150.495 35.0792 150.314 35.1066C149.489 35.2246 148.679 35.4111 148.29 36.2587C148.068 36.7443 148.136 37.271 148.57 37.6248C149.294 38.2201 150.131 38.2969 151.006 37.9951C151.176 37.9375 151.343 37.8635 151.497 37.7702C152.278 37.2956 152.97 36.5358 152.769 35.7156C152.608 35.0326 151.565 35.1423 150.882 35.0655Z" fill="#F2F2F2"/>
<path d="M162.159 36.5962C163.034 34.3386 163.767 32.4348 164.507 30.5366C164.795 29.8015 166.946 29.1733 167.533 29.6533C167.815 29.8865 167.61 30.1443 167.503 30.3857C165.462 35.0573 163.413 39.7233 161.399 44.4031C161.172 44.9325 160.856 45.0504 160.351 45.0257C159.762 44.9983 159.169 45.0203 158.475 45.0203C158.749 43.7941 159.279 42.7544 159.869 41.7614C160.648 40.453 160.593 39.2021 159.973 37.8635C158.865 35.466 157.844 33.0301 156.725 30.6408C156.305 29.7466 156.571 29.5628 157.449 29.5217C158.62 29.4668 159.323 29.9304 159.759 31.0194C160.469 32.7887 161.265 34.5278 162.159 36.5962Z" fill="#F2F2F2"/>
<path d="M96.2749 36.5029C95.452 38.6672 94.0228 40.1156 91.6281 40.3707C89.4583 40.6011 87.6643 39.8769 86.4299 38.0445C84.6852 35.4495 85.5521 31.8396 88.2266 30.3309C90.9368 28.803 94.437 29.8481 95.847 32.6104C96.0116 32.9314 96.1515 33.266 96.3024 33.5924C96.3901 34.5608 96.4313 35.5346 96.2749 36.5029ZM88.0675 34.9969C88.0511 36.7745 89.2827 38.1625 90.9039 38.1981C92.5141 38.2311 93.8637 36.854 93.9076 35.1286C93.9542 33.3373 92.6375 31.8725 90.9697 31.8643C89.3458 31.8561 88.0812 33.2194 88.0675 34.9969Z" fill="#F2F2F2"/>
<path d="M79.3444 40.4118C76.2748 40.4173 73.9212 38.1296 73.8966 35.1149C73.8719 32.0042 76.2008 29.6533 79.3142 29.6451C82.392 29.6369 84.8416 32.07 84.8032 35.0902C84.762 38.0857 82.381 40.4064 79.3444 40.4118ZM82.2164 35.0408C82.2192 33.2441 81.0012 31.8807 79.3746 31.8643C77.7122 31.8451 76.3462 33.3099 76.3763 35.0792C76.4038 36.7909 77.7369 38.1927 79.3416 38.1954C80.9628 38.1954 82.2137 36.8238 82.2164 35.0408Z" fill="#F2F2F2"/>
<path d="M118.637 40.4393C116.453 40.453 114.503 39.1939 113.751 37.1311C112.939 34.9064 113.219 32.8079 114.901 31.0386C116.22 29.6533 118.431 29.2693 120.22 30.0154C121.673 30.6244 122.4 31.878 123.111 33.17C123.456 33.7982 122.965 33.8668 122.614 34.0149C120.809 34.772 119.018 35.562 117.183 36.2396C116.08 36.6455 116.385 37.0872 116.994 37.6358C117.885 38.4368 119.24 38.4642 120.483 37.3889C121.539 36.4755 122.112 37.2847 122.795 37.7373C123.237 38.0308 122.85 38.3764 122.634 38.6535C121.794 39.7178 120.198 40.431 118.637 40.4393ZM115.861 34.7226C117.378 34.0889 118.779 33.5019 120.209 32.9067C119.63 31.8122 118.733 31.6421 117.743 31.9493C116.478 32.3361 115.885 33.2605 115.861 34.7226Z" fill="#F2F2F2"/>
<path d="M143.736 40.0744C142.922 40.0635 142.104 40.0497 141.289 40.0388C141.265 39.8083 141.243 39.5779 141.218 39.3475C141.328 34.8378 141.336 30.3281 141.213 25.8157C141.229 25.4893 141.248 25.1656 141.265 24.8392C142.099 24.5594 142.941 24.6279 143.783 24.7953C143.766 29.892 143.753 34.9832 143.736 40.0744Z" fill="#F2F2F2"/>
<path d="M112.015 40.1156C111.217 40.2719 110.418 40.2857 109.62 40.1019C109.604 39.7453 109.584 39.3859 109.568 39.0293C109.568 38.6645 109.568 38.2996 109.568 37.9348C109.568 37.6605 109.568 37.3862 109.568 37.1119C109.568 36.3822 109.568 35.6498 109.568 34.9201C109.568 34.6458 109.568 34.3715 109.568 34.0972C109.568 32.3608 109.568 30.6244 109.568 28.888C109.568 28.6137 109.568 28.3394 109.568 28.0651C109.568 27.2421 109.568 26.422 109.568 25.599C109.587 25.3329 109.604 25.0669 109.623 24.8008C110.418 24.6033 111.214 24.6307 112.012 24.7871C112.012 29.892 112.012 35.0052 112.015 40.1156Z" fill="#F2F2F2"/>
<path d="M66.9537 19.0759C65.7166 19.5559 65.1213 19.0676 64.9266 17.9814C64.751 17.0021 64.2216 16.6784 63.2396 16.7799C62.2548 16.8841 61.0643 16.4397 60.8558 18.0198C60.8146 18.327 60.6747 18.6342 60.5239 18.9085C60.2002 19.5011 59.594 19.3008 59.1797 19.1829C58.5927 19.0128 59.0865 18.5547 59.1797 18.2968C60.0383 15.9021 60.9628 13.532 61.8214 11.1373C62.0079 10.6188 62.2493 10.3829 62.8007 10.4296C63.2396 10.468 63.7196 10.3171 63.939 10.9124C64.9321 13.6363 65.9443 16.352 66.9537 19.0759ZM62.8939 12.1385C62.6608 12.7996 62.5154 13.2056 62.3727 13.6116C61.6897 15.5592 61.6897 15.5592 63.7799 15.4769C63.854 15.4742 63.9226 15.3974 64.0515 15.3233C63.7553 14.44 63.459 13.5485 63.1545 12.657C63.1106 12.5308 63.0338 12.4156 62.8939 12.1385Z" fill="#E8E8E8"/>
<path d="M96.6973 13.2193C98.2307 12.2976 99.413 12.2784 100.318 13.0904C101.314 13.9846 101.638 16.2175 100.982 17.7208C100.455 18.9332 99.5036 19.3804 98.2225 19.2624C97.449 19.1911 96.733 18.3133 95.8662 19.2048C95.6275 19.4517 95.2188 19.1252 95.2188 18.6342C95.227 15.9377 95.2353 13.244 95.2133 10.5475C95.2078 9.92209 95.5727 9.955 96.0088 9.92483C96.5684 9.88917 96.7193 10.1306 96.7001 10.6435C96.6754 11.4637 96.6973 12.2867 96.6973 13.2193ZM99.3609 17.5233C99.8711 16.4726 99.937 15.422 99.3828 14.3632C98.7464 13.4086 97.94 13.5293 97.2021 14.1383C96.4944 14.7198 96.4614 16.8786 97.1472 17.5699C97.8467 18.2721 98.6395 18.338 99.3609 17.5233Z" fill="#F2F2F2"/>
<path d="M89.2772 14.0697C88.7176 14.1492 88.5585 13.735 88.5009 13.3373C88.4406 12.934 88.8356 12.8654 89.1263 12.753C91.063 12.0206 92.5333 12.4951 93.3946 14.13C93.4029 15.6826 93.4111 17.2352 93.4193 18.7851C93.2492 19.4517 92.5415 19.3776 92.4016 19.117C91.9682 18.3078 91.6555 18.7193 91.1617 19.0045C90.0014 19.6711 88.6381 19.2789 87.785 18.1158C87.7328 17.9567 87.6835 17.7976 87.6313 17.6385C87.6286 17.4574 87.6286 17.2736 87.6259 17.0926C87.6697 16.928 87.7109 16.7634 87.7548 16.5988C88.0949 15.9323 88.6682 15.5647 89.3513 15.3343C90.059 15.2712 90.7695 15.2081 91.4772 15.145C91.6665 15.1642 91.8118 15.1313 91.7817 14.8899C91.768 14.7088 91.7542 14.5305 91.7405 14.3495C91.7652 14.1684 91.6829 14.0532 91.5183 13.9901L91.5567 14.0285C91.4936 13.8639 91.3839 13.7707 91.1974 13.8009C90.5144 13.5896 89.8725 13.6637 89.2772 14.0697ZM90.9917 16.1874C90.2318 16.2614 89.3485 16.2203 89.269 17.2791C89.2169 17.9951 89.7902 18.1761 90.3799 18.1322C91.255 18.0691 91.8119 17.6357 91.8448 16.6894C91.8722 15.9926 91.3592 16.2258 90.9917 16.1874Z" fill="#E8E8E8"/>
<path d="M79.5968 16.6263C79.5995 17.2654 79.5995 17.9046 79.5968 18.541C79.5968 18.818 79.5995 19.1362 79.2649 19.202C78.9686 19.2624 78.5187 19.3584 78.42 18.9936C78.1676 18.0499 77.833 18.7494 77.5367 18.9113C75.7262 19.9098 73.8993 19.0951 73.8884 17.3011C73.8829 16.4041 74.3245 15.8362 75.1036 15.5071C75.6961 15.2574 76.3325 15.2163 76.9771 15.1697C77.3666 15.1422 78.1128 15.5427 78.0387 14.6156C77.9866 13.9545 77.5477 13.661 76.9113 13.7076C76.5053 13.7378 76.0856 13.7734 75.7098 13.9106C75.2572 14.0779 74.9554 14.1136 74.7305 13.5869C74.4644 12.9669 74.9198 12.8901 75.2901 12.7502C77.9454 11.7408 79.5913 12.8572 79.5995 15.6634C79.5968 15.9871 79.5968 16.3081 79.5968 16.6263ZM77.1911 16.1874C76.4148 16.2559 75.5342 16.223 75.4629 17.2901C75.4135 18.0115 75.9676 18.1871 76.5766 18.135C77.4599 18.0582 78.014 17.6028 78.0552 16.6756C78.0853 15.9761 77.5449 16.2285 77.1911 16.1874Z" fill="#E8E8E8"/>
<path d="M109.447 16.2367C109.129 16.2367 108.797 16.1819 108.493 16.2505C108.111 16.3355 107.464 15.8856 107.39 16.6126C107.332 17.1721 107.667 17.6604 108.213 17.921C109.014 18.3023 109.818 18.1103 110.621 17.9183C110.885 17.8552 111.247 17.5041 111.359 18.0691C111.431 18.4285 111.409 18.7632 111.005 19.0018C110.133 19.5203 107.675 19.2898 106.839 18.5711C105.739 17.622 105.396 15.8088 106.029 14.2836C106.545 13.0465 107.692 12.3744 109.104 12.4869C109.195 12.4951 109.288 12.4951 109.376 12.5089C110.811 12.753 111.859 14.1273 111.719 15.5784C111.656 16.2395 111.656 16.2395 109.447 16.2367ZM108.663 15.2684C109.124 14.9228 109.999 15.6881 110.097 14.7609C110.177 14.0258 109.524 13.7131 108.803 13.7021C108.07 13.6884 107.456 14.0368 107.442 14.7335C107.426 15.6771 108.295 14.9091 108.663 15.2684Z" fill="#E8E8E8"/>
<path d="M123.709 15.8966C123.706 15.0298 123.725 14.1602 123.703 13.2934C123.681 12.3964 124.471 12.3086 124.732 12.6954C125.272 13.4991 125.604 12.9093 126.016 12.731C127.922 11.9026 129.552 12.9285 129.576 14.9886C129.59 16.1298 129.563 17.2736 129.585 18.4148C129.596 18.9524 129.505 19.2569 128.847 19.2487C128.218 19.2405 128.073 18.9826 128.084 18.4257C128.103 17.3312 128.084 16.234 128.065 15.1395C128.054 14.4592 127.917 13.8393 127.066 13.7679C126.186 13.6939 125.563 13.9929 125.333 14.9283C125.056 16.0584 125.226 17.2023 125.204 18.338C125.193 18.9223 125.132 19.2679 124.403 19.2514C123.709 19.235 123.701 18.8564 123.709 18.3654C123.717 17.5425 123.709 16.7195 123.709 15.8966Z" fill="#F2F2F2"/>
<path d="M122.214 15.9597C122.195 18.0966 121.089 19.2679 119.089 19.2652C117.112 19.2652 115.883 17.9375 115.902 15.8225C115.918 13.7625 117.123 12.4951 119.065 12.4842C121.031 12.4732 122.233 13.8009 122.214 15.9597ZM117.482 15.946C117.496 17.3477 117.998 18.0006 119.07 18.0225C120.167 18.0445 120.694 17.3313 120.683 15.8417C120.672 14.462 120.143 13.7734 119.092 13.7679C117.989 13.7597 117.465 14.4674 117.482 15.946Z" fill="#E8E8E8"/>
<path d="M70.1659 17.4629C70.6871 15.9679 71.211 14.6293 71.606 13.2577C71.8474 12.4266 72.4345 12.4375 72.9858 12.5802C73.8334 12.7996 73.1504 13.3482 73.0462 13.65C72.4783 15.2821 71.7953 16.8704 71.2275 18.5026C71.0217 19.0923 70.7173 19.2405 70.1357 19.2624C69.513 19.2871 69.236 19.0183 69.0412 18.4916C68.4432 16.8677 67.8068 15.2602 67.2335 13.6308C67.121 13.3153 66.5889 12.8298 67.1704 12.6131C67.6559 12.432 68.3664 12.3168 68.6352 13.137C69.0302 14.3467 69.4499 15.5482 69.8669 16.7497C69.9355 16.9527 70.0315 17.1475 70.1659 17.4629Z" fill="#E8E8E8"/>
<path d="M104.353 19.0128C103.821 19.3749 103.289 19.3611 102.757 19.0073C102.773 16.0063 102.79 13.0081 102.803 10.0071C103.303 10.0016 103.805 9.99615 104.304 9.99066C104.32 12.9971 104.337 16.0036 104.353 19.0128Z" fill="#E8E8E8"/>
<path d="M84.8498 14.4894C84.8498 13.2577 84.8553 12.0233 84.847 10.7917C84.8443 10.3034 84.8415 9.92483 85.5383 9.91386C86.2652 9.90014 86.3393 10.2348 86.3338 10.8273C86.3118 13.3373 86.3228 15.8472 86.3283 18.3572C86.3283 18.8427 86.3393 19.2322 85.6398 19.2487C84.8991 19.2679 84.8333 18.9003 84.8443 18.3215C84.8662 17.046 84.8498 15.7677 84.8498 14.4894Z" fill="#F4F4F4"/>
<path d="M82.9516 19.01C81.4429 19.4572 81.3743 19.416 81.3688 17.9869C81.3634 16.5824 81.3524 15.1752 81.3743 13.7707C81.3825 13.244 81.1027 12.5555 82.1177 12.5308C83.2369 12.5061 82.9077 13.2742 82.9242 13.8338C82.9653 15.1011 82.9598 16.3712 82.9763 17.6385C82.9681 18.0966 82.9598 18.5519 82.9516 19.01Z" fill="#E8E8E8"/>
<path d="M147.398 32.3608C148.013 32.6214 148.375 32.2209 148.817 31.8862C150.323 30.7533 152.396 31.4501 152.89 33.3126C150.076 32.7201 147.415 32.6296 145.7 35.4989C145.473 35.4276 145.19 35.2904 145.363 35.0463C146.013 34.1328 146.715 33.255 147.398 32.3608Z" fill="#161616"/>
<path d="M112.015 40.1156C112.015 35.0052 112.012 29.892 112.012 24.7816C112.783 24.8831 112.577 25.4893 112.58 25.9446C112.596 28.2598 112.454 30.5832 112.629 32.8847C112.786 34.9201 112.473 36.9281 112.577 38.9498C112.599 39.4024 112.783 40.0113 112.015 40.1156Z" fill="#161616"/>
<path d="M128.819 24.798C128.833 29.892 128.847 34.9859 128.86 40.0799C128.169 40.0881 128.221 39.5916 128.221 39.1335C128.221 34.6869 128.218 30.2403 128.221 25.791C128.221 25.3466 128.131 24.8309 128.819 24.798Z" fill="#212121"/>
<path d="M143.736 40.0744C143.753 34.9832 143.769 29.892 143.783 24.798C144.477 24.8199 144.395 25.3329 144.395 25.78C144.397 30.2349 144.395 34.6924 144.395 39.1472C144.397 39.6136 144.433 40.1073 143.736 40.0744Z" fill="#161616"/>
<path d="M107.922 40.4009C107.881 36.9473 107.837 33.491 107.796 30.0374C108.611 30.0017 108.468 30.6052 108.468 31.077C108.476 34.4373 108.474 37.7976 108.474 41.1936C108.002 41.0949 108.312 40.5051 107.922 40.4009Z" fill="#161616"/>
<path d="M109.568 37.1091C109.568 37.3834 109.568 37.6577 109.568 37.932C109.178 38.2969 109.178 38.6617 109.568 39.0265C109.584 39.3832 109.604 39.7425 109.62 40.0991C108.926 40.058 109.025 39.5368 109.025 39.0924C109.022 34.6622 109.022 30.2294 109.025 25.7992C109.025 25.3549 108.926 24.8337 109.623 24.7953C109.604 25.0613 109.587 25.3274 109.568 25.5935C109.132 26.4164 109.132 27.2366 109.568 28.0596C109.568 28.3339 109.568 28.6082 109.568 28.8825C109.129 30.6189 109.126 32.3553 109.568 34.0917C109.568 34.366 109.568 34.6403 109.568 34.9146C109.143 35.647 109.143 36.3794 109.568 37.1091Z" fill="#212121"/>
<path d="M102.804 10.0044C102.787 13.0054 102.771 16.0036 102.757 19.0046C102.189 18.9661 102.162 18.5684 102.162 18.135C102.164 15.6936 102.167 13.255 102.162 10.8136C102.162 10.3665 102.233 9.99341 102.804 10.0044Z" fill="#161616"/>
<path d="M104.353 19.0128C104.337 16.0036 104.32 12.9971 104.304 9.98792C104.677 10.0099 104.899 10.1827 104.899 10.5777C104.896 13.2193 104.894 15.8637 104.885 18.5053C104.885 18.8427 104.644 18.9606 104.353 19.0128Z" fill="#161616"/>
<path d="M141.268 24.8419C141.251 25.1683 141.232 25.492 141.215 25.8185C140.771 26.0708 140.834 26.5042 140.834 26.9075C140.831 30.693 140.831 34.4757 140.834 38.2612C140.834 38.6645 140.771 39.1006 141.221 39.3475C141.246 39.5779 141.268 39.8083 141.292 40.0388C140.606 40.1458 140.565 39.6959 140.565 39.2021C140.565 34.7062 140.565 30.2074 140.565 25.7115C140.56 25.2259 140.576 24.7624 141.268 24.8419Z" fill="#161616"/>
<path d="M72.5442 31.376C70.1687 31.365 67.7931 31.3568 65.4176 31.3458C65.4752 30.8685 65.8044 30.8027 66.2049 30.8027C68.0647 30.8082 69.9245 30.8082 71.7844 30.8027C72.1958 30.8027 72.4976 30.9097 72.5442 31.376Z" fill="#161616"/>
<path d="M19.8818 8.82761C19.5828 9.53259 20.51 10.1004 20.0985 10.8164C18.9793 10.1333 18.0714 9.24182 17.4048 8.10891C18.3758 7.84831 19.1549 8.24607 19.8818 8.82761Z" fill="#56E5D5"/>
<path d="M87.6313 17.6412C87.6834 17.8003 87.7328 17.9594 87.7849 18.1185C87.3707 18.1158 87.1732 18.4367 86.8715 18.8043C86.8715 15.9048 86.8715 13.1123 86.8715 10.3226C86.94 10.3198 87.0114 10.3171 87.0799 10.3144C87.0799 11.9877 87.0744 13.661 87.0827 15.3343C87.0854 15.8637 86.9483 16.4864 87.7547 16.5988C87.7109 16.7634 87.6697 16.928 87.6258 17.0926C87.3488 17.2791 87.3515 17.4629 87.6313 17.6412Z" fill="#161616"/>
<path d="M134.736 24.6334C133.757 24.606 132.778 24.5813 131.801 24.5539C131.697 24.3399 131.595 24.3399 131.494 24.5566C130.885 24.7239 130.27 24.7431 129.65 24.6279C129.809 24.414 128.679 24.0217 129.7 23.9723C131.294 23.8983 132.895 23.9449 134.492 23.9641C135.079 23.9696 134.816 24.3481 134.736 24.6334Z" fill="#161616"/>
<path d="M89.2772 14.0697C89.8725 13.6637 90.5144 13.5869 91.1947 13.8009C91.3154 13.8777 91.4333 13.9517 91.554 14.0285L91.5156 13.9901C91.5897 14.1108 91.6637 14.2288 91.7378 14.3495C91.7515 14.5305 91.7652 14.7088 91.7789 14.8899C91.6774 14.9749 91.576 15.06 91.4745 15.145C90.7667 15.2081 90.0563 15.2712 89.3485 15.3343C89.3266 14.9146 89.3019 14.4921 89.2772 14.0697Z" fill="#161616"/>
<path d="M82.9927 10.9727C82.9241 11.5131 82.5895 11.8121 82.0738 11.7463C81.5718 11.6832 81.2755 11.343 81.3468 10.7862C81.4127 10.2924 81.7473 10.0675 82.1917 10.0812C82.7239 10.0976 82.9982 10.4323 82.9927 10.9727Z" fill="#E8E8E8"/>
<path d="M96.2749 36.5029C96.434 35.5318 96.3929 34.5608 96.3023 33.5897C96.7522 33.5952 97.1993 33.6034 97.6492 33.6089C97.5916 34.045 97.5312 34.4812 97.4736 34.9201C97.3392 34.9914 97.1088 35.0408 97.0896 35.1368C97.0293 35.4139 97.2816 35.4303 97.4791 35.4632C97.5367 35.8061 97.5971 36.1518 97.6547 36.4947C97.1938 36.4974 96.7357 36.5001 96.2749 36.5029Z" fill="#161616"/>
<path d="M94.5604 18.6973C94.5604 15.9762 94.5604 13.2522 94.5604 10.5311C94.6235 10.5311 94.6866 10.5311 94.7497 10.5311C94.7497 13.2413 94.7497 15.9515 94.7497 18.6617C94.6866 18.6726 94.6235 18.6864 94.5604 18.6973Z" fill="#212121"/>
<path d="M84.2738 10.3034C84.2738 12.8353 84.2738 15.3644 84.2738 17.8963C84.2271 17.8963 84.1832 17.8963 84.1366 17.8963C84.1366 15.3699 84.1366 12.8408 84.1366 10.3143C84.1805 10.3116 84.2271 10.3061 84.2738 10.3034Z" fill="#070707"/>
<path d="M93.4193 18.7878C93.4111 17.2352 93.4029 15.6826 93.3947 14.1328C93.6251 13.9764 93.8829 13.9901 93.8884 14.2837C93.9076 15.732 93.8939 17.1831 93.8582 18.6315C93.85 18.8317 93.6031 18.8372 93.4193 18.7878Z" fill="#161616"/>
<path d="M82.9515 19.01C82.9598 18.5547 82.968 18.0966 82.9762 17.6385C83.5358 16.6153 83.1271 15.5126 83.2341 14.4537C83.2835 13.9709 83.2423 13.4799 83.5084 12.9889C83.5084 14.7856 83.5056 16.5824 83.5111 18.3791C83.5139 18.7686 83.3219 18.9634 82.9515 19.01Z" fill="#212121"/>
<path d="M15.8166 33.554C16.1951 36.0146 16.2034 38.4725 15.7974 40.9303C15.6931 38.4725 15.6904 36.0146 15.8166 33.554Z" fill="#44CECD"/>
<path d="M156.124 33.0548C156.124 35.3151 156.124 37.5727 156.124 39.8331C156.078 39.8331 156.031 39.8331 155.984 39.8331C155.984 37.5782 155.984 35.3234 155.984 33.0685C156.031 33.0658 156.078 33.0603 156.124 33.0548Z" fill="#212121"/>
<path d="M80.8257 18.6918C80.8257 16.8101 80.8257 14.9283 80.8257 13.0465C80.8696 13.0465 80.9135 13.0438 80.9601 13.0438C80.9601 14.9201 80.9601 16.7963 80.9601 18.6754C80.9135 18.6809 80.8696 18.6864 80.8257 18.6918Z" fill="#212121"/>
<path d="M132.602 34.3907C133.592 34.3331 134.58 34.2755 135.57 34.2179C135.098 35.1396 133.45 35.2328 132.602 34.3907Z" fill="#161616"/>
<path d="M65.2037 33.6994C65.3628 33.7323 65.5246 33.7653 65.6837 33.7982C66.9263 34.5251 68.339 33.768 70.0123 34.355C68.3582 34.355 67.1019 34.3523 65.8483 34.3578C65.3984 34.3633 65.179 34.1575 65.2037 33.6994Z" fill="#212121"/>
<path d="M131.979 34.9503C131.979 36.4617 131.979 37.9732 131.979 39.4847C131.946 39.4874 131.911 39.4874 131.878 39.4901C131.878 37.9787 131.878 36.4672 131.878 34.9558C131.913 34.9503 131.946 34.9503 131.979 34.9503Z" fill="#070707"/>
<path d="M80.0165 18.722C80.0165 17.2846 80.0165 15.8472 80.0165 14.4126C80.0576 14.4126 80.1015 14.4126 80.1427 14.4126C80.1427 15.85 80.1427 17.2874 80.1427 18.722C80.1015 18.722 80.0604 18.722 80.0165 18.722Z" fill="#212121"/>
<path d="M15.8358 29.7109C16.0963 29.7603 16.3268 29.8481 16.2829 30.1828C16.25 30.4461 16.036 30.4845 15.833 30.5284C15.8358 30.2541 15.8358 29.9825 15.8358 29.7109Z" fill="#56E5D5"/>
<path d="M31.145 31.3541C31.0079 31.7024 30.8296 32.0014 30.3934 31.996C30.27 31.3458 30.7171 31.3596 31.145 31.3541Z" fill="#56E5D5"/>
<path d="M31.4386 31.0852C31.3371 31.1758 31.2383 31.269 31.1368 31.3595C31.2383 31.2663 31.3398 31.1758 31.4386 31.0852Z" fill="#56E5D5"/>
<path d="M31.7623 30.8137C31.6471 30.9097 31.5346 31.0057 31.4194 31.1017C31.5319 31.0084 31.6471 30.9097 31.7623 30.8137Z" fill="#56E5D5"/>
<path d="M21.5031 12.2373C22.1011 12.1331 22.0654 12.5692 22.1038 12.9423C21.7499 12.838 21.5799 12.5774 21.5031 12.2373Z" fill="#56E5D5"/>
<path d="M22.6716 13.5156C22.9953 13.5457 23.1681 13.7213 23.1928 14.045C22.924 13.9627 22.7457 13.7871 22.6716 13.5156Z" fill="#56E5D5"/>
<path d="M20.4908 11.3129C20.7021 11.3376 20.8913 11.3924 20.927 11.6448C20.724 11.6064 20.5485 11.5351 20.4908 11.3129Z" fill="#56E5D5"/>
<path d="M20.137 10.8465C20.3893 10.8877 20.4414 11.0769 20.4661 11.2882C20.2412 11.2278 20.1726 11.0495 20.137 10.8465Z" fill="#56E5D5"/>
<path d="M20.9681 11.6804C21.1218 11.6777 21.1986 11.7518 21.1931 11.9054C21.119 11.8313 21.0449 11.7545 20.9681 11.6804Z" fill="#56E5D5"/>
<path d="M21.2424 11.9575C21.396 11.952 21.4729 12.0261 21.4674 12.1824C21.3933 12.1056 21.3192 12.0316 21.2424 11.9575Z" fill="#56E5D5"/>
<path d="M105.643 35.06C105.64 36.8567 104.458 38.1981 102.886 38.1926C101.284 38.1872 99.9479 36.7251 99.9726 35.0051C99.9973 33.2523 101.347 31.8231 102.935 31.8643C104.504 31.9082 105.648 33.255 105.643 35.06Z" fill="#070707"/>
<path d="M97.4792 35.4605C97.2817 35.4276 97.0293 35.4111 97.0897 35.1341C97.1089 35.0381 97.3393 34.9887 97.4737 34.9174C97.4764 35.1011 97.4792 35.2794 97.4792 35.4605Z" fill="#020202"/>
<path d="M136.08 28.0431C136.972 28.5314 136.859 29.379 136.681 30.1169C136.483 30.9289 135.957 31.6311 135.035 31.7189C134.001 31.8176 132.953 31.7847 131.913 31.8286C131.447 31.8478 131.263 31.664 131.272 31.1977C131.288 30.0182 131.282 28.8386 131.274 27.6591C131.269 27.0529 131.661 27.1845 132.018 27.2339C131.848 27.8511 132.319 27.7716 132.649 27.7798C133.548 27.8017 134.448 27.788 135.348 27.7908C135.526 28.0596 135.817 28.0102 136.08 28.0431ZM135.104 31.1895C134.791 31.0386 134.511 31.0057 134.215 31.2334C134.53 31.3842 134.81 31.4281 135.104 31.1895ZM132.777 31.195C132.52 31.1401 132.399 31.099 132.278 31.0962C132.204 31.0935 132.127 31.1511 132.051 31.1812C132.136 31.2334 132.221 31.3239 132.308 31.3294C132.418 31.3349 132.531 31.269 132.777 31.195Z" fill="#070707"/>
<path d="M135.348 27.7853C134.448 27.7853 133.548 27.7962 132.649 27.7743C132.319 27.7661 131.848 27.8484 132.018 27.2284C132.339 27.1845 132.662 27.1297 132.956 27.3382C133.255 27.5302 133.507 27.489 133.713 27.1955C134.174 27.0776 134.626 27.1379 135.076 27.2449C135.167 27.4287 135.257 27.607 135.348 27.7853Z" fill="#161616"/>
<path d="M135.348 27.7853C135.257 27.607 135.167 27.4287 135.076 27.2476C135.559 27.3025 135.995 27.4232 136.091 27.9965C135.842 27.9279 135.595 27.8566 135.348 27.7853Z" fill="#070707"/>
<path d="M135.348 27.788C135.595 27.8593 135.842 27.9279 136.091 28.002C136.091 28.0047 136.08 28.0431 136.08 28.0431C135.817 28.0102 135.526 28.0596 135.348 27.788Z" fill="#161616"/>
<path d="M133.713 27.201C133.507 27.4945 133.255 27.5356 132.956 27.3436C133.156 27.0062 133.444 27.1571 133.713 27.201Z" fill="#070707"/>
<path d="M131.494 24.5566C131.595 24.3427 131.697 24.3427 131.801 24.5539C131.697 24.5539 131.595 24.5539 131.494 24.5566Z" fill="#020202"/>
<path d="M150.882 35.0655C151.565 35.145 152.608 35.0326 152.772 35.7156C152.972 36.5385 152.278 37.2956 151.499 37.7702C151.346 37.8635 151.178 37.9375 151.008 37.9951C150.133 38.2969 149.299 38.2201 148.572 37.6248C148.136 37.2682 148.07 36.7443 148.293 36.2587C148.679 35.4111 149.491 35.2246 150.317 35.1066C150.495 35.0792 150.676 35.0792 150.882 35.0655Z" fill="#161616"/>
<path d="M88.0675 34.9969C88.084 33.2194 89.3458 31.8561 90.9698 31.8643C92.6376 31.8725 93.9543 33.3346 93.9076 35.1286C93.8638 36.854 92.5169 38.2311 90.9039 38.1982C89.2827 38.1625 88.0511 36.7745 88.0675 34.9969Z" fill="#070707"/>
<path d="M82.2164 35.0408C82.2137 36.8238 80.9628 38.1954 79.3389 38.1954C77.7342 38.1927 76.401 36.7909 76.3736 35.0792C76.3461 33.3099 77.7095 31.8451 79.3718 31.8643C80.9985 31.8808 82.2164 33.2441 82.2164 35.0408Z" fill="#070707"/>
<path d="M115.861 34.7226C115.885 33.2633 116.475 32.3388 117.742 31.9493C118.733 31.6448 119.627 31.8122 120.209 32.9067C118.779 33.5019 117.378 34.0889 115.861 34.7226Z" fill="#161616"/>
<path d="M141.218 39.3475C140.768 39.1006 140.831 38.6645 140.831 38.2612C140.829 34.4757 140.829 30.693 140.831 26.9075C140.831 26.5042 140.768 26.0681 141.213 25.8185C141.336 30.3281 141.328 34.8378 141.218 39.3475Z" fill="#020202"/>
<path d="M109.568 34.0917C109.126 32.3553 109.129 30.6189 109.568 28.8825C109.568 30.6216 109.568 32.3553 109.568 34.0917Z" fill="#020202"/>
<path d="M109.568 28.0596C109.132 27.2366 109.132 26.4164 109.568 25.5935C109.568 26.4164 109.568 27.2394 109.568 28.0596Z" fill="#020202"/>
<path d="M109.568 37.1091C109.143 36.3794 109.146 35.647 109.568 34.9174C109.568 35.647 109.568 36.3767 109.568 37.1091Z" fill="#020202"/>
<path d="M109.568 39.0293C109.178 38.6645 109.178 38.2996 109.568 37.9348C109.568 38.2969 109.568 38.6645 109.568 39.0293Z" fill="#020202"/>
<path d="M62.8939 12.1385C63.0338 12.4156 63.1107 12.5308 63.1518 12.657C63.4563 13.5485 63.7525 14.44 64.0488 15.3233C63.9199 15.3973 63.8513 15.4741 63.7772 15.4769C61.687 15.5619 61.687 15.5592 62.37 13.6116C62.5154 13.2056 62.6608 12.7996 62.8939 12.1385Z" fill="#161616"/>
<path d="M99.3829 14.3632C99.937 15.4193 99.8711 16.4726 99.3609 17.5233C99.2238 17.3093 99.029 17.2325 98.7849 17.3011C97.7096 17.5946 97.4298 17.0844 97.4764 16.1023C97.5285 15.0325 97.3776 13.8475 99.0921 14.6265C99.1415 14.6457 99.2841 14.4565 99.3829 14.3632Z" fill="#030303"/>
<path d="M99.3828 14.3632C99.2841 14.4565 99.1415 14.6457 99.0948 14.6265C97.3804 13.8475 97.5312 15.0325 97.4791 16.1023C97.4325 17.0844 97.7123 17.5973 98.7876 17.3011C99.0317 17.2353 99.2265 17.3093 99.3636 17.5233C98.6422 18.338 97.8494 18.2721 97.15 17.5672C96.4642 16.8759 96.4971 14.7171 97.2048 14.1355C97.9427 13.532 98.7492 13.4086 99.3828 14.3632Z" fill="#212121"/>
<path d="M90.9916 16.1874C91.3592 16.223 91.8722 15.9926 91.8475 16.6921C91.8146 17.6385 91.2577 18.0719 90.3827 18.135C89.7902 18.1761 89.2169 17.9951 89.2717 17.2819C89.3485 16.223 90.2318 16.2614 90.9916 16.1874Z" fill="#161616"/>
<path d="M87.6314 17.6412C87.3543 17.4629 87.3516 17.2791 87.6259 17.0953C87.6259 17.2764 87.6286 17.4602 87.6314 17.6412Z" fill="#020202"/>
<path d="M91.7378 14.3495C91.6638 14.2288 91.5897 14.1108 91.5156 13.9901C91.6802 14.056 91.7625 14.1712 91.7378 14.3495Z" fill="#020202"/>
<path d="M91.4745 15.145C91.576 15.0599 91.6775 14.9749 91.779 14.8899C91.8091 15.1313 91.6665 15.1642 91.4745 15.145Z" fill="#020202"/>
<path d="M91.5539 14.0285C91.4332 13.9517 91.3153 13.8777 91.1946 13.8009C91.3839 13.7707 91.4908 13.8667 91.5539 14.0285Z" fill="#020202"/>
<path d="M77.1911 16.1874C77.5449 16.2285 78.0853 15.9762 78.0551 16.6756C78.014 17.6028 77.4599 18.0582 76.5766 18.135C75.9676 18.1871 75.4135 18.0115 75.4629 17.2901C75.5315 16.223 76.412 16.2559 77.1911 16.1874Z" fill="#161616"/>
<path d="M108.663 15.2684C108.292 14.9118 107.423 15.6799 107.442 14.7335C107.456 14.0368 108.073 13.6884 108.803 13.7021C109.524 13.7158 110.177 14.0258 110.097 14.761C109.999 15.6881 109.124 14.9228 108.663 15.2684Z" fill="#070707"/>
<path d="M117.482 15.946C117.465 14.4674 117.987 13.7597 119.092 13.7652C120.143 13.7707 120.672 14.462 120.683 15.839C120.694 17.3285 120.167 18.039 119.07 18.0198C117.998 18.0006 117.498 17.3477 117.482 15.946Z" fill="#070707"/>
<path d="M135.104 31.1895C134.807 31.4281 134.528 31.3842 134.215 31.2334C134.511 31.0057 134.791 31.0386 135.104 31.1895Z" fill="#161616"/>
<path d="M132.778 31.195C132.533 31.2718 132.418 31.3349 132.311 31.3294C132.223 31.3239 132.138 31.2334 132.053 31.1813C132.13 31.1511 132.207 31.0962 132.281 31.0962C132.399 31.099 132.517 31.1401 132.778 31.195Z" fill="#161616"/>
</svg>
