<svg width="33" height="32" viewBox="0 0 33 32" fill="none" xmlns="http://www.w3.org/2000/svg">
<path d="M23.7537 0.248749H9.22184C4.4923 0.248749 0.644653 4.0964 0.644653 8.82594V23.3581C0.644653 28.0874 4.4923 31.935 9.22184 31.935H23.754C28.4833 31.935 32.3309 28.0874 32.3309 23.3581V8.82594C32.3309 4.0964 28.4833 0.248749 23.7537 0.248749V0.248749ZM16.4878 24.7559C11.7104 24.7559 7.82382 20.8693 7.82382 16.0919C7.82382 11.3145 11.7104 7.42791 16.4878 7.42791C21.2652 7.42791 25.1518 11.3145 25.1518 16.0919C25.1518 20.8693 21.2652 24.7559 16.4878 24.7559ZM25.3589 9.47116C23.9471 9.47116 22.7988 8.32286 22.7988 6.91106C22.7988 5.49925 23.9471 4.35071 25.3589 4.35071C26.7707 4.35071 27.9193 5.49925 27.9193 6.91106C27.9193 8.32286 26.7707 9.47116 25.3589 9.47116Z" fill="url(#paint0_linear_35_25207)"/>
<path d="M16.4878 9.28552C12.7349 9.28552 9.6814 12.3388 9.6814 16.0919C9.6814 19.8448 12.7349 22.8983 16.4878 22.8983C20.2409 22.8983 23.2942 19.8448 23.2942 16.0919C23.2942 12.3388 20.2409 9.28552 16.4878 9.28552Z" fill="url(#paint1_linear_35_25207)"/>
<path d="M25.3589 6.20853C24.9716 6.20853 24.6564 6.52376 24.6564 6.91104C24.6564 7.29832 24.9716 7.61356 25.3589 7.61356C25.7464 7.61356 26.0616 7.29856 26.0616 6.91104C26.0616 6.52352 25.7464 6.20853 25.3589 6.20853Z" fill="url(#paint2_linear_35_25207)"/>
<defs>
<linearGradient id="paint0_linear_35_25207" x1="16.4878" y1="0.248749" x2="16.4878" y2="31.935" gradientUnits="userSpaceOnUse">
<stop stop-color="#FFC700"/>
<stop offset="0.328125" stop-color="#FF646D"/>
<stop offset="0.666667" stop-color="#D3377A"/>
<stop offset="1" stop-color="#7846CC"/>
</linearGradient>
<linearGradient id="paint1_linear_35_25207" x1="16.4878" y1="9.28552" x2="16.4878" y2="22.8983" gradientUnits="userSpaceOnUse">
<stop stop-color="#FFC700"/>
<stop offset="0.328125" stop-color="#FF646D"/>
<stop offset="0.666667" stop-color="#D3377A"/>
<stop offset="1" stop-color="#7846CC"/>
</linearGradient>
<linearGradient id="paint2_linear_35_25207" x1="25.359" y1="6.20853" x2="25.359" y2="7.61356" gradientUnits="userSpaceOnUse">
<stop stop-color="#FFC700"/>
<stop offset="0.328125" stop-color="#FF646D"/>
<stop offset="0.666667" stop-color="#D3377A"/>
<stop offset="1" stop-color="#7846CC"/>
</linearGradient>
</defs>
</svg>
