<svg width="44" height="44" viewBox="0 0 44 44" fill="none" xmlns="http://www.w3.org/2000/svg">
<path d="M22.8475 0C23.5072 0.118734 24.18 0.184698 24.822 0.367196C29.4922 1.69526 32.4804 4.71858 33.4193 9.48114C34.2878 13.8853 32.8608 17.6276 29.4878 20.607C29.3405 20.7367 29.1866 20.8598 28.9931 21.0247C29.2899 21.1325 29.5296 21.216 29.7671 21.3084C30.7082 21.6734 31.1589 22.5727 30.8577 23.4808C30.5564 24.3867 29.6615 24.822 28.6831 24.567C27.3176 24.213 25.9588 23.7886 24.5714 23.5577C22.0714 23.1422 19.5779 23.3291 17.1351 24.0041C12.6804 25.231 9.11394 27.742 6.44902 31.5195C5.03081 33.5314 4.08753 35.7522 3.53124 38.1466C3.21022 39.5319 3.98639 40.5367 5.4134 40.5411C7.35932 40.5477 9.30524 40.5367 11.2512 40.5455C12.0691 40.5499 12.7133 41.0336 12.9332 41.7636C13.1443 42.4672 12.8805 43.2478 12.2758 43.6612C12.0911 43.7865 11.88 43.8745 11.6821 43.9778C9.30524 43.9778 6.93055 43.9778 4.55367 43.9778C4.48991 43.9514 4.42834 43.9118 4.36238 43.8986C2.67592 43.5974 1.41162 42.6959 0.622255 41.1853C0.336413 40.64 0.204487 40.0134 0 39.4263C0 38.9976 0 38.5666 0 38.1378C0.233071 37.2583 0.417768 36.3612 0.705808 35.4993C2.81004 29.2174 6.8536 24.6549 12.8761 21.8691C13.5467 21.559 14.2459 21.3128 14.9341 21.0335C14.9077 20.9896 14.8989 20.961 14.8791 20.9434C14.7604 20.84 14.6395 20.7389 14.5207 20.6355C11.1302 17.6496 9.68123 13.9051 10.5585 9.47894C11.5018 4.71858 14.4856 1.69526 19.1558 0.367196C19.7956 0.184698 20.4706 0.118734 21.1281 0C21.702 0 22.2736 0 22.8475 0ZM13.7446 11.6667C13.7292 16.1302 17.4231 19.9078 21.8119 19.9209C26.4909 19.9341 30.2046 16.3171 30.2332 11.7195C30.2596 7.18781 26.5591 3.45868 22.0142 3.43889C17.4847 3.4169 13.7578 7.12185 13.7446 11.6667Z" fill="white"/>
<path d="M32.4673 43.9756C31.7615 43.6853 31.0029 43.4787 30.3587 43.0851C29.2219 42.3903 28.7228 41.2161 28.3556 39.9892C28.2456 39.6198 28.1423 39.246 28.0587 38.87C27.852 37.9509 28.3622 37.0912 29.2571 36.8361C30.1432 36.5833 31.0425 37.0538 31.3437 37.9465C31.5306 38.5006 31.6779 39.0701 31.8714 39.6198C32.0979 40.2574 32.5003 40.5367 33.1687 40.5389C34.8859 40.5433 36.6032 40.5389 38.3204 40.5411C38.9119 40.5433 39.3451 40.297 39.5693 39.7429C40.2839 37.9861 40.7809 36.1721 40.4401 34.268C40.2422 33.1664 39.8618 32.0956 39.5188 31.0248C39.3627 30.5432 38.9317 30.3256 38.437 30.3234C36.6494 30.3124 34.8596 30.3124 33.0697 30.3234C32.5135 30.3278 32.1199 30.6048 31.9396 31.1457C31.7857 31.6052 31.6273 32.0648 31.491 32.5309C31.1458 33.7029 30.6335 34.0965 29.4198 34.0965C25.728 34.0965 22.0363 34.1009 18.3445 34.0899C18.0455 34.0899 17.8454 34.18 17.6365 34.3889C17.3155 34.7121 16.9461 34.9892 16.4887 35.3783C17.0428 35.8841 17.4628 36.2864 17.907 36.6602C18.0081 36.746 18.1972 36.7526 18.3445 36.7548C19.8331 36.7614 21.3217 36.7548 22.8102 36.7614C23.4941 36.7658 24.0262 37.0604 24.3538 37.6695C24.6638 38.2456 24.6374 38.8282 24.2966 39.3845C23.9822 39.8946 23.5029 40.1805 22.907 40.1849C21.0028 40.2003 19.1009 40.1959 17.1968 40.1871C16.7152 40.1849 16.315 39.9628 15.983 39.6242C15.009 38.6347 14.0283 37.6519 13.0696 36.6492C12.355 35.9039 12.355 34.9452 13.0696 34.191C14.0129 33.1928 14.9804 32.2165 15.9369 31.2293C16.3414 30.8137 16.8362 30.6576 17.41 30.6598C20.9457 30.6664 24.4791 30.6576 28.0148 30.6708C28.3578 30.673 28.5051 30.5762 28.6194 30.2464C29.4198 27.9641 30.9677 26.8845 33.3842 26.8823C35.0003 26.8823 36.6186 26.8801 38.2347 26.8823C40.4159 26.8867 42.0034 27.9641 42.8191 29.9803C43.3688 31.337 43.7844 32.7288 43.9097 34.1954C43.9163 34.279 43.9559 34.3581 43.9801 34.4395C43.9801 35.0969 43.9801 35.7565 43.9801 36.414C43.9581 36.4645 43.9251 36.5129 43.9141 36.5657C43.6745 37.6629 43.4942 38.7777 43.1863 39.8573C42.8279 41.115 42.2892 42.2935 41.1613 43.0961C40.506 43.5644 39.7628 43.7865 38.9999 43.9712C36.8187 43.9756 34.6419 43.9756 32.4673 43.9756Z" fill="white"/>
<path d="M37.0186 37.1022C36.0753 37.1022 35.2969 36.3216 35.3035 35.3762C35.3101 34.4329 36.0951 33.6611 37.0383 33.6721C37.9662 33.6831 38.727 34.4483 38.7314 35.3762C38.7402 36.3194 37.964 37.1 37.0186 37.1022Z" fill="white"/>
</svg>
