<svg width="220" height="24" viewBox="0 0 220 24" fill="none" xmlns="http://www.w3.org/2000/svg">
<path d="M46.0347 15.5555C46.0347 19.9995 43.8127 22.2216 39.3686 22.2216H24.9308V17.7775H39.3723C40.8524 17.7775 41.5943 17.0356 41.5943 15.5555C41.5943 14.0753 40.8524 13.3334 39.3723 13.3334H30.4841C26.04 13.3334 23.818 11.1114 23.818 6.66732C23.818 2.22692 26.04 0.00488281 30.4841 0.00488281H44.9255V4.44896H30.4841C29.004 4.44896 28.2621 5.19086 28.2621 6.67099C28.2621 8.15113 29.004 8.89303 30.4841 8.89303H39.3686C43.8127 8.89303 46.0347 11.1114 46.0347 15.5555Z" fill="white"/>
<path d="M70.4734 15.5543C70.4734 19.9983 68.2514 22.2204 63.8073 22.2204H49.3659V17.7763H63.8073C65.2874 17.7763 66.0293 17.0344 66.0293 15.5543C66.0293 14.0741 65.2874 13.3322 63.8073 13.3322H54.9228C50.4787 13.3322 48.2567 11.1102 48.2567 6.66611C48.2567 2.22204 50.4787 0 54.9228 0H69.3642V4.44407H54.9228C53.4427 4.44407 52.7008 5.18598 52.7008 6.66611C52.7008 8.14625 53.4427 8.88815 54.9228 8.88815H63.8073C68.2514 8.89182 70.4734 11.1102 70.4734 15.5543Z" fill="white"/>
<path d="M90.4681 22.2204H72.6954V0.00366211H77.1395V17.7763H90.4681V22.2204Z" fill="white"/>
<path d="M106.019 15.5542H92.6901V11.1101H106.019V15.5542Z" fill="white"/>
<path d="M139.342 0.00366211L132.79 22.2204H128.125L123.795 7.77896L119.465 22.2204H114.8L108.241 0.00366211H112.905L117.125 14.4451L121.459 0.00366211H126.124L130.454 14.4451L134.677 0.00366211H139.342Z" fill="white"/>
<path d="M143.452 22.2203C140.047 22.2203 138.343 20.4941 138.343 17.038C138.343 13.7068 140.047 12.0394 143.452 12.0394H150.562V12.0026C150.562 10.6694 149.883 10.0047 148.528 10.0047H139.085V5.92786H148.528C152.601 5.92786 154.635 7.96258 154.635 12.0357V22.2167H143.452V22.2203ZM143.452 18.1472H150.562V16.1125H143.452C142.761 16.1125 142.416 16.4467 142.416 17.1115C142.416 17.802 142.761 18.1472 143.452 18.1472Z" fill="white"/>
<path d="M156.854 22.2204V0.00366211H160.927V22.2204H156.854Z" fill="white"/>
<path d="M163.149 22.2204V0.00366211H167.222V22.2204H163.149Z" fill="white"/>
<path d="M173.517 15.7416V16.1126C173.517 17.4715 174.197 18.1473 175.552 18.1473H185.366V22.2204H175.552C171.479 22.2204 169.444 20.1857 169.444 16.1126V15.7416V11.6685C169.444 7.59539 171.519 5.56067 175.666 5.56067H179.886C184.032 5.56067 186.108 7.59539 186.108 11.6685V15.7416H173.517ZM182.034 11.6685C182.034 10.3096 181.355 9.63379 180 9.63379H175.556C174.197 9.63379 173.521 10.3133 173.521 11.6685H182.034Z" fill="white"/>
<path d="M188.326 5.92787H190.548V0.00366211H194.621V5.92787H196.843V10.001H194.621V22.2204H190.548V10.001H188.326V5.92787Z" fill="white"/>
<path d="M26.8114 4.20166H0V6.77261H26.8114V4.20166Z" fill="#5947B1"/>
<path d="M146.544 16.6891H123.773V19.26H146.544V16.6891Z" fill="#FF7C34"/>
<path d="M202.371 21.0966H179.599V23.6675H202.371V21.0966Z" fill="#FF185F"/>
<path d="M51.7863 1.99805H7.34558V3.46716H51.7863V1.99805Z" fill="#FF185F"/>
<path d="M58.3973 17.0565H13.9565V18.5256H58.3973V17.0565Z" fill="#7287F2"/>
<path d="M209.716 1.26343H165.276V2.73254H209.716V1.26343Z" fill="#7287F2"/>
<path d="M40.0334 7.5072H2.93823V8.24176H40.0334V7.5072Z" fill="#FF7C34"/>
<path d="M130.384 3.83435H93.2888V4.56891H130.384V3.83435Z" fill="#FF1A5D"/>
<path d="M220 3.83435H182.905V4.56891H220V3.83435Z" fill="#5947B1"/>
</svg>
