<svg width="55" height="56" viewBox="0 0 55 56" fill="none" xmlns="http://www.w3.org/2000/svg">
<path d="M43.4905 34.2284C42.3629 33.0543 41.0028 32.4265 39.5613 32.4265C38.1314 32.4265 36.7596 33.0427 35.5855 34.2168L31.912 37.8787C31.6098 37.7159 31.3075 37.5648 31.0169 37.4137C30.5984 37.2044 30.2031 37.0068 29.866 36.7976C26.425 34.6121 23.2979 31.7639 20.2986 28.0788C18.8455 26.242 17.869 24.6959 17.1599 23.1265C18.1131 22.2547 18.9966 21.3479 19.8569 20.476C20.1824 20.1505 20.5079 19.8134 20.8334 19.4879C23.2746 17.0466 23.2746 13.8846 20.8334 11.4434L17.6597 8.26976C17.2994 7.90938 16.9274 7.53738 16.5786 7.16538C15.8811 6.44463 15.1487 5.70063 14.3931 5.00313C13.2655 3.88713 11.917 3.29425 10.4987 3.29425C9.08048 3.29425 7.70872 3.88713 6.54622 5.00313C6.5346 5.01475 6.5346 5.01475 6.52297 5.02638L2.57046 9.01376C1.08246 10.5018 0.233836 12.3153 0.0478352 14.4194C-0.231165 17.8139 0.768587 20.9759 1.53584 23.0452C3.41909 28.1253 6.23235 32.8334 10.429 37.8787C15.5207 43.9586 21.6471 48.7597 28.6454 52.1426C31.3191 53.4097 34.888 54.9093 38.8754 55.1651C39.1195 55.1767 39.3753 55.1883 39.6078 55.1883C42.2932 55.1883 44.5484 54.2235 46.3154 52.3053C46.327 52.2821 46.3503 52.2705 46.3619 52.2472C46.9664 51.5148 47.6639 50.8522 48.3963 50.1431C48.8962 49.6665 49.4077 49.1666 49.9075 48.6435C51.0584 47.4461 51.6629 46.0511 51.6629 44.6212C51.6629 43.1797 51.0468 41.7963 49.8727 40.6338L43.4905 34.2284ZM47.6523 46.4696C47.6407 46.4696 47.6407 46.4812 47.6523 46.4696C47.1989 46.9578 46.7339 47.3996 46.234 47.8878C45.4784 48.6086 44.7112 49.3642 43.9904 50.2128C42.8163 51.4683 41.4329 52.0612 39.6194 52.0612C39.445 52.0612 39.259 52.0612 39.0847 52.0496C35.632 51.8287 32.4235 50.4802 30.0171 49.3293C23.4374 46.1441 17.6597 41.6219 12.8586 35.8908C8.89448 31.1129 6.24397 26.6954 4.48859 21.9524C3.40747 19.0578 3.01222 16.8025 3.18659 14.6751C3.30284 13.315 3.82597 12.1874 4.79084 11.2225L8.75498 7.25838C9.3246 6.72363 9.9291 6.43301 10.522 6.43301C11.2544 6.43301 11.8472 6.87476 12.2192 7.24676C12.2309 7.25838 12.2425 7.27001 12.2541 7.28163C12.9632 7.94426 13.6375 8.63013 14.3466 9.36251C14.707 9.73451 15.079 10.1065 15.451 10.4901L18.6246 13.6638C19.8569 14.896 19.8569 16.0353 18.6246 17.2675C18.2875 17.6046 17.962 17.9418 17.6249 18.2673C16.6484 19.267 15.7184 20.197 14.707 21.1038C14.6837 21.127 14.6605 21.1387 14.6489 21.1619C13.6491 22.1617 13.8351 23.1382 14.0444 23.8008C14.056 23.8357 14.0676 23.8705 14.0792 23.9054C14.9046 25.9049 16.0671 27.7882 17.8341 30.0318L17.8457 30.0434C21.0542 33.9959 24.4371 37.0766 28.1688 39.4364C28.6454 39.7387 29.1336 39.9828 29.5986 40.2153C30.0171 40.4246 30.4124 40.6222 30.7495 40.8314C30.796 40.8547 30.8425 40.8896 30.889 40.9128C31.2843 41.1104 31.6563 41.2034 32.0399 41.2034C33.0048 41.2034 33.6093 40.5989 33.8069 40.4013L37.7826 36.4256C38.1779 36.0303 38.8057 35.5537 39.538 35.5537C40.2588 35.5537 40.8517 36.0071 41.212 36.4023C41.2237 36.4139 41.2237 36.4139 41.2353 36.4256L47.6407 42.8309C48.838 44.0167 48.838 45.2373 47.6523 46.4696Z" fill="white"/>
<path d="M29.7266 13.2104C32.7724 13.7219 35.5391 15.1634 37.7479 17.3722C39.9566 19.5809 41.3865 22.3477 41.9096 25.3935C42.0375 26.1607 42.7001 26.6955 43.4558 26.6955C43.5488 26.6955 43.6301 26.6838 43.7231 26.6722C44.5834 26.5327 45.153 25.719 45.0135 24.8587C44.3858 21.1736 42.642 17.8139 39.9799 15.1518C37.3177 12.4897 33.9581 10.7459 30.273 10.1182C29.4127 9.97868 28.6106 10.5483 28.4595 11.3969C28.3084 12.2456 28.8664 13.0709 29.7266 13.2104Z" fill="white"/>
<path d="M54.976 24.4053C53.9414 18.337 51.0817 12.8152 46.6874 8.4209C42.2931 4.02664 36.7713 1.16689 30.703 0.132263C29.8544 -0.0188618 29.0523 0.562389 28.9011 1.41102C28.7616 2.27127 29.3313 3.07339 30.1915 3.22452C35.6088 4.1429 40.5494 6.71202 44.4787 10.6297C48.4079 14.5589 50.9654 19.4995 51.8838 24.9168C52.0117 25.6841 52.6743 26.2188 53.4299 26.2188C53.5229 26.2188 53.6043 26.2072 53.6973 26.1956C54.5459 26.0677 55.1272 25.2539 54.976 24.4053Z" fill="white"/>
</svg>
