<svg width="31" height="33" viewBox="0 0 31 33" fill="none" xmlns="http://www.w3.org/2000/svg">
<path d="M9.42611 30.9122C2.92282 28.2497 -1.66107 20.3702 0.60873 11.9978C2.94731 3.37222 11.7362 -1.57686 20.0541 1.36475C28.3839 4.31049 32.4622 13.835 29.2695 22.1421C26.0234 30.5869 17.0983 34.0406 9.75129 31.0543C9.75454 31.0191 9.7837 31.0063 9.80531 30.9887C10.4427 30.4601 10.9566 29.8205 11.3815 29.0994C11.8947 28.2283 12.2577 27.2885 12.5541 26.3184C12.8526 25.3422 13.0759 24.3458 13.2782 23.3441C13.3225 23.1243 13.3643 22.904 13.4079 22.6842C13.4118 22.6636 13.4209 22.6441 13.4291 22.6189C13.4878 22.6291 13.5292 22.6654 13.5735 22.6936C13.9214 22.9131 14.2567 23.1528 14.5981 23.3827C15.0032 23.6555 15.4227 23.8986 15.8876 24.0457C16.2427 24.1582 16.6057 24.2182 16.9759 24.2407C17.6212 24.2798 18.2626 24.2411 18.8953 24.1053C19.9828 23.872 20.9606 23.391 21.8255 22.6639C22.9282 21.7369 23.7176 20.5661 24.2837 19.2238C24.6863 18.269 24.9481 17.2722 25.0889 16.2401C25.1829 15.5495 25.2236 14.8554 25.202 14.1584C25.1742 13.2606 25.0622 12.3768 24.79 11.5199C24.4706 10.516 23.9646 9.6276 23.2782 8.84952C22.5119 7.98065 21.598 7.326 20.5745 6.8308C19.613 6.3656 18.6047 6.06322 17.5582 5.89178C16.7731 5.7631 15.9838 5.70607 15.1897 5.72521C14.2794 5.74697 13.3769 5.8385 12.4921 6.07748C10.8669 6.51641 9.40955 7.29186 8.14411 8.4451C7.02487 9.46553 6.17717 10.6863 5.66797 12.1505C5.45838 12.7538 5.32046 13.375 5.25492 14.0139C5.19802 14.5703 5.19442 15.1274 5.23691 15.6845C5.29597 16.4573 5.45946 17.2035 5.78969 17.9036C6.22794 18.8325 6.89883 19.5201 7.78579 19.9827C8.1848 20.1909 8.60397 20.3376 9.03755 20.4434C9.06168 20.4494 9.08724 20.4501 9.11065 20.4584C9.16431 20.4768 9.18412 20.4539 9.19492 20.4002C9.22553 20.2483 9.26118 20.0971 9.29323 19.9456C9.4009 19.435 9.49345 18.9218 9.55827 18.4029C9.56728 18.3316 9.55287 18.2836 9.50318 18.2318C9.16107 17.8721 8.84165 17.4924 8.5604 17.0775C8.3058 16.7019 8.15743 16.2934 8.11422 15.8316C8.02671 14.9001 8.11926 13.9948 8.41419 13.1117C8.72065 12.1952 9.20572 11.3908 9.84384 10.6889C11.0297 9.38449 12.4799 8.57078 14.1641 8.20425C14.888 8.04668 15.6201 8.00391 16.3554 8.0797C17.8582 8.23501 19.1582 8.85139 20.2335 9.96299C20.6004 10.3423 20.8615 10.7988 21.0679 11.2892C21.3192 11.8868 21.4662 12.5144 21.5486 13.1601C21.612 13.6542 21.6365 14.1505 21.6196 14.648C21.567 16.221 21.2328 17.7186 20.505 19.1086C20.1661 19.7554 19.7434 20.3338 19.1956 20.8073C18.7109 21.2263 18.1657 21.5133 17.5438 21.6353C17.0803 21.7261 16.6194 21.7054 16.1595 21.6083C15.8815 21.5497 15.6136 21.4631 15.3637 21.3209C14.8862 21.0493 14.611 20.6295 14.525 20.0739C14.454 19.615 14.5001 19.16 14.5851 18.7083C14.7183 17.9985 14.9398 17.3153 15.1577 16.6307C15.3622 15.9873 15.5758 15.3465 15.731 14.6873C15.8379 14.233 15.9193 13.7746 15.9136 13.3045C15.9107 13.0659 15.8797 12.8307 15.8073 12.603C15.677 12.1948 15.4278 11.8875 15.0695 11.6782C14.6903 11.4569 14.2808 11.3357 13.8469 11.3252C13.2275 11.3102 12.6949 11.5435 12.24 11.9735C11.7089 12.4754 11.3819 13.1094 11.1626 13.8106C10.9519 14.4844 10.8709 15.1766 10.9177 15.8822C10.9591 16.5099 11.101 17.1109 11.4183 17.6552C11.4539 17.7164 11.442 17.7711 11.4291 17.8289C11.3527 18.1696 11.2778 18.5106 11.1964 18.8497C10.9325 19.9516 10.6206 21.0399 10.3322 22.135C10.0765 23.1055 9.83808 24.0802 9.6573 25.0691C9.54171 25.7016 9.44952 26.3375 9.38866 26.9786C9.32492 27.6505 9.28999 28.3236 9.30115 28.9985C9.31087 29.5822 9.34221 30.1649 9.41315 30.7445C9.41927 30.794 9.42107 30.8454 9.42611 30.9122Z" fill="#CA2127"/>
</svg>
