<svg width="40" height="35" viewBox="0 0 40 35" fill="none" xmlns="http://www.w3.org/2000/svg">
<path d="M5.44686 5.61553C6.67087 4.5452 7.95071 3.48522 9.46226 2.91834C10.9738 2.35145 12.779 2.3537 14.0853 3.31605C14.8415 3.87304 15.3708 4.70132 15.7476 5.57278C16.7175 7.81647 16.7544 10.3494 16.7755 12.8028C16.8015 15.8576 16.8274 18.9125 16.8538 21.9678C16.8643 23.1997 16.8824 24.4707 17.3647 25.5999C17.847 26.7292 18.9189 27.6888 20.1209 27.6268C21.0921 27.5764 22.5513 26.7238 23.2899 26.0759C26.572 23.1965 29.2504 20.2186 30.7043 16.052C30.98 15.262 32.047 13.4057 31.9072 12.5787C31.7674 11.7518 30.7351 11.8593 30.0167 12.2638C28.2581 13.2536 26.965 12.8212 25.6491 12.5328C24.3548 12.2494 23.8804 10.5933 23.9428 9.23997C24.1125 5.55884 26.6559 2.04417 30.1227 1.04673C33.5893 0.0492822 37.6896 1.83901 39.1743 5.19621C39.6786 6.33628 39.8901 7.59197 39.9591 8.84136C40.2449 14.0333 38.1016 19.1366 34.9404 23.2082C31.7793 27.2799 30.4524 29.1155 25.8399 32.4192C23.6417 33.9938 22.9382 34.3538 21.0406 34.747C17.7278 35.4335 14.2295 33.7347 12.5988 30.705C10.9681 27.6753 10.8832 24.0432 11.0556 20.5889C11.2284 17.1345 11.3928 14.9637 10.5698 11.6092C10.3776 10.8268 10.0378 9.96747 9.30002 9.68358C8.97292 9.55761 8.6124 9.56706 8.26331 9.58595C5.65746 9.72632 3.28155 10.4345 0.80188 11.1593C1.88652 9.56616 4.00435 6.87706 5.44686 5.61553Z" fill="#29ABE2"/>
</svg>
