<svg width="42" height="24" viewBox="0 0 42 24" fill="none" xmlns="http://www.w3.org/2000/svg">
<path d="M41.2017 21.0494C41.1527 20.9454 41.107 20.859 41.0646 20.7899C40.3629 19.5438 39.0219 18.0144 37.0424 16.2011L37.0006 16.1596L36.9796 16.1393L36.9584 16.1184H36.9372C36.0388 15.274 35.4699 14.7063 35.2317 14.4157C34.7957 13.862 34.6981 13.3015 34.9363 12.7337C35.1046 12.3046 35.7369 11.3985 36.8316 10.0142C37.4075 9.28049 37.8635 8.69248 38.2003 8.24947C40.6293 5.06581 41.6824 3.0314 41.3593 2.14546L41.2338 1.93843C41.1495 1.81379 40.9319 1.69976 40.5814 1.59577C40.23 1.492 39.7808 1.47484 39.2332 1.544L33.1684 1.5853C33.0701 1.55098 32.9298 1.55418 32.7471 1.59577C32.5645 1.63737 32.4732 1.65824 32.4732 1.65824L32.3677 1.71023L32.2839 1.7727C32.2136 1.814 32.1364 1.88665 32.0521 1.99049C31.9682 2.09397 31.8981 2.21542 31.842 2.3538C31.1817 4.02861 30.431 5.58575 29.5885 7.02516C29.069 7.88347 28.5919 8.62732 28.1562 9.25714C27.7211 9.88675 27.3561 10.3506 27.0615 10.648C26.7664 10.9456 26.5002 11.1841 26.261 11.3642C26.0223 11.5444 25.84 11.6205 25.7138 11.5927C25.5873 11.5648 25.4682 11.5372 25.3554 11.5096C25.159 11.3849 25.001 11.2154 24.8819 11.0009C24.7622 10.7864 24.6817 10.5164 24.6396 10.1911C24.5977 9.86559 24.5729 9.58562 24.5658 9.35023C24.5592 9.11512 24.5623 8.78258 24.5765 8.35353C24.5911 7.92427 24.5977 7.63383 24.5977 7.48155C24.5977 6.9555 24.6081 6.38458 24.629 5.76864C24.6502 5.15271 24.6674 4.66468 24.6818 4.30516C24.6961 3.94527 24.7027 3.56451 24.7027 3.1631C24.7027 2.76169 24.6779 2.44688 24.629 2.2184C24.5806 1.9902 24.5063 1.7687 24.4084 1.55396C24.3099 1.33944 24.1658 1.17349 23.9767 1.05568C23.7872 0.938023 23.5516 0.844651 23.2713 0.775277C22.5271 0.609258 21.5795 0.519449 20.4281 0.505487C17.8169 0.477854 16.1391 0.64409 15.395 1.00398C15.1002 1.15604 14.8334 1.3638 14.5949 1.6266C14.3421 1.93123 14.3068 2.09746 14.4893 2.12481C15.3318 2.24923 15.9282 2.54687 16.2792 3.01744L16.4057 3.2668C16.5041 3.4467 16.6024 3.76522 16.7007 4.22189C16.7989 4.67857 16.8622 5.18376 16.8901 5.73715C16.9602 6.74774 16.9602 7.61281 16.8901 8.33244C16.8198 9.05237 16.7534 9.61282 16.6901 10.0142C16.6267 10.4156 16.532 10.7409 16.4057 10.99C16.2792 11.2391 16.1951 11.3914 16.1529 11.4467C16.1108 11.5019 16.0757 11.5368 16.0478 11.5504C15.8653 11.6194 15.6755 11.6545 15.4791 11.6545C15.2824 11.6545 15.0438 11.5575 14.7631 11.3636C14.4824 11.1697 14.1912 10.9034 13.8893 10.5643C13.5874 10.225 13.2469 9.75098 12.8677 9.14203C12.4888 8.53308 12.0957 7.81337 11.6885 6.98291L11.3516 6.38065C11.1411 5.9932 10.8534 5.42904 10.4884 4.68868C10.1231 3.94803 9.80027 3.2316 9.51961 2.53953C9.40742 2.24887 9.23888 2.02758 9.01428 1.87531L8.90888 1.81284C8.83881 1.75757 8.72633 1.69889 8.57202 1.63635C8.4175 1.57388 8.25626 1.52909 8.08764 1.50153L2.31751 1.54283C1.72788 1.54283 1.32781 1.67453 1.11715 1.93755L1.03284 2.06198C0.990725 2.13128 0.969482 2.24196 0.969482 2.39431C0.969482 2.54658 1.0116 2.73347 1.09591 2.95476C1.93824 4.90655 2.85426 6.7889 3.84396 8.60209C4.83367 10.4153 5.69371 11.8758 6.42356 12.9825C7.15355 14.0899 7.89764 15.1351 8.65581 16.1176C9.41399 17.1004 9.91585 17.7302 10.1614 18.0069C10.4072 18.2841 10.6003 18.4914 10.7407 18.6298L11.2673 19.128C11.6042 19.4602 12.099 19.8581 12.7518 20.3217C13.4048 20.7856 14.1277 21.2423 14.9209 21.6925C15.7143 22.142 16.6373 22.5088 17.6903 22.7924C18.7432 23.0764 19.768 23.1904 20.7649 23.1354H23.1867C23.6779 23.0936 24.05 22.9413 24.3029 22.6785L24.3867 22.5744C24.4431 22.4918 24.4958 22.3635 24.5445 22.1908C24.5938 22.0178 24.6183 21.8272 24.6183 21.6198C24.6039 21.0248 24.6498 20.4885 24.7549 20.011C24.8598 19.5337 24.9795 19.1738 25.1133 18.9314C25.247 18.6892 25.3979 18.4849 25.5658 18.3192C25.7342 18.1532 25.8541 18.0527 25.9245 18.018C25.9944 17.9832 26.0502 17.9596 26.0923 17.9454C26.4293 17.8347 26.8258 17.9419 27.2825 18.2675C27.7389 18.5927 28.1669 18.9944 28.5673 19.4717C28.9674 19.9495 29.4482 20.4855 30.0096 21.0806C30.5715 21.6758 31.0627 22.1183 31.4837 22.4094L31.9047 22.6586C32.1859 22.8248 32.5509 22.9771 33.0003 23.1155C33.4488 23.2538 33.8418 23.2884 34.1793 23.2192L39.5701 23.1363C40.1033 23.1363 40.5182 23.0493 40.8125 22.8766C41.1074 22.7036 41.2826 22.513 41.3391 22.3057C41.3954 22.0981 41.3985 21.8626 41.3498 21.5994C41.2999 21.3368 41.2507 21.1532 41.2017 21.0494Z" fill="#4C8FB5"/>
</svg>
