<svg width="31" height="35" viewBox="0 0 31 35" fill="none" xmlns="http://www.w3.org/2000/svg">
<path d="M15.3134 0.365494H15.3058C6.94282 0.365494 0.14209 8.01845 0.14209 17.4289C0.14209 21.1616 1.2114 24.6212 3.02961 27.4303L1.13935 33.7693L6.96937 31.6727C9.36773 33.4601 12.2287 34.4924 15.3134 34.4924C23.6764 34.4924 30.4771 26.8373 30.4771 17.4289C30.4771 8.02059 23.6764 0.365494 15.3134 0.365494ZM24.139 24.4612C23.7731 25.6237 22.3208 26.5878 21.1624 26.8693C20.3699 27.0591 19.3347 27.2106 15.8499 25.5853C11.3926 23.5078 8.52214 18.4122 8.29842 18.0816C8.08418 17.751 6.49728 15.3835 6.49728 12.9349C6.49728 10.4863 7.60261 9.29395 8.04816 8.78204C8.41407 8.36185 9.01888 8.16989 9.59903 8.16989C9.78673 8.16989 9.95547 8.18055 10.1071 8.18909C10.5527 8.21042 10.7764 8.24028 11.0703 9.0316C11.4362 10.0234 12.3273 12.472 12.4335 12.7237C12.5415 12.9754 12.6496 13.3167 12.4979 13.6473C12.3557 13.9885 12.2306 14.14 12.0069 14.43C11.7832 14.7201 11.5708 14.9419 11.3471 15.2534C11.1423 15.5242 10.911 15.8143 11.1689 16.3156C11.4267 16.8061 12.3178 18.4421 13.6298 19.756C15.3229 21.4517 16.6955 21.9934 17.1866 22.2238C17.5525 22.3944 17.9886 22.3539 18.2559 22.0339C18.5953 21.6223 19.0143 20.9398 19.4409 20.2679C19.7442 19.7858 20.1272 19.7261 20.5291 19.8967C20.9386 20.0567 23.1057 21.2618 23.5513 21.5114C23.9968 21.7631 24.2907 21.8825 24.3987 22.0937C24.5049 22.3048 24.5049 23.2966 24.139 24.4612Z" fill="#2AAF2F"/>
</svg>
