<svg width="45" height="33" viewBox="0 0 45 33" fill="none" xmlns="http://www.w3.org/2000/svg">
<path d="M16.5028 0.447674C18.2136 0.442421 19.8937 0.663031 21.5354 1.15153C24.5742 2.05629 27.1564 3.67891 29.2289 6.09337C30.4289 7.49144 31.3411 9.06153 31.9771 10.7918C32.3664 11.8498 32.6377 12.9375 32.7949 14.0546C32.9207 14.9453 32.9784 15.84 32.9588 16.7391C32.9255 18.2851 32.6936 19.7996 32.2323 21.2774C31.7788 22.731 31.1309 24.0906 30.2791 25.3512C29.1594 27.0076 27.7685 28.3942 26.1167 29.5179C24.8223 30.399 23.4261 31.0718 21.9369 31.5511C21.0304 31.8426 20.1051 32.0544 19.1628 32.1936C18.2747 32.325 17.3822 32.3876 16.4854 32.3862C14.6925 32.384 12.935 32.1332 11.2226 31.5962C8.85655 30.8542 6.75309 29.6536 4.94582 27.9465C3.17612 26.2748 1.87341 24.2919 1.03203 22.004C0.672498 21.0266 0.417811 20.0224 0.254864 18.9947C0.0779372 17.8802 0.0220197 16.7575 0.0748793 15.6313C0.180598 13.3818 0.712252 11.2392 1.7192 9.2213C2.63573 7.38464 3.87028 5.79353 5.41762 4.44886C6.944 3.12257 8.66565 2.1307 10.5673 1.44874C11.5358 1.10163 12.5279 0.846435 13.5414 0.678351C14.3614 0.542221 15.1875 0.462118 16.0188 0.447674C16.1809 0.445485 16.3421 0.447674 16.5028 0.447674ZM12.389 11.2208C12.4213 11.212 12.4344 11.2068 12.4479 11.2055C13.008 11.1438 13.5694 11.0974 14.1311 11.0553C14.6475 11.0164 15.1643 10.9805 15.6811 10.9415C15.803 10.9323 15.8012 10.9293 15.81 10.8133C15.8445 10.3611 15.8803 9.90896 15.9341 9.45855C15.9559 9.27383 15.9576 9.27427 15.775 9.27383C15.7698 9.27383 15.765 9.27383 15.7597 9.27383C11.7267 9.27383 7.69364 9.27383 3.66015 9.27383C3.63001 9.27383 3.59987 9.27339 3.56972 9.27383C3.44872 9.27558 3.44741 9.27558 3.44697 9.39989C3.44609 9.86913 3.44653 10.3384 3.44697 10.8076C3.44697 10.9223 3.42775 10.9323 3.56492 10.9415C3.97119 10.9687 4.37791 10.998 4.78418 11.0286C5.55174 11.0869 6.31886 11.1481 7.08598 11.2037C7.15937 11.209 7.20611 11.2348 7.24892 11.2882C7.34328 11.406 7.4407 11.5215 7.53637 11.6384C8.56648 12.8964 9.59484 14.1553 10.6263 15.412C11.8237 16.8713 13.0228 18.3293 14.2238 19.7861C14.2788 19.853 14.3046 19.917 14.3046 20.0032C14.3024 21.4061 14.3033 22.8085 14.3028 24.2114C14.3028 24.3397 14.302 24.3414 14.1757 24.3515C13.5388 24.4023 12.9023 24.4517 12.2653 24.5021C11.6485 24.5506 11.0321 24.6005 10.4153 24.6491C10.2956 24.6588 10.2938 24.6579 10.2934 24.7822C10.2925 25.1608 10.2921 25.539 10.2934 25.9176C10.2942 26.1461 10.2658 26.119 10.4935 26.119C14.4763 26.1194 18.4591 26.1194 22.4419 26.1194C22.462 26.1194 22.4821 26.1194 22.5022 26.1194C22.652 26.1185 22.6529 26.1185 22.6533 25.9728C22.6538 25.6047 22.6533 25.2361 22.6533 24.868C22.6533 24.6566 22.6533 24.6566 22.4345 24.6491C22.3991 24.6478 22.3641 24.6469 22.3287 24.6443C21.5455 24.5896 20.7609 24.5708 19.9767 24.5401C19.5696 24.5239 19.162 24.5152 18.7544 24.5016C18.636 24.4977 18.6356 24.4955 18.6386 24.3817C18.6574 23.666 18.6775 22.9503 18.695 22.2347C18.7125 21.5089 18.736 20.7832 18.7391 20.0575C18.74 19.822 18.7898 19.6359 18.9995 19.5129C19.0121 19.5055 19.0209 19.4919 19.0322 19.4819C19.8072 18.7925 20.5826 18.1039 21.3567 17.4141C22.1308 16.7242 22.9041 16.0331 23.6769 15.3415C24.3143 14.7707 24.9508 14.1982 25.5855 13.6243C25.6309 13.5832 25.6772 13.5709 25.7345 13.5678C25.9402 13.5573 26.1464 13.5442 26.3517 13.5298C26.8734 13.493 27.3954 13.4571 27.9166 13.416C28.3128 13.3849 28.7086 13.3481 29.1039 13.3113C29.221 13.3004 29.2228 13.2973 29.2228 13.1897C29.2236 12.6193 29.2236 12.0494 29.2228 11.4791C29.2228 11.3679 29.2206 11.3657 29.1035 11.3674C28.7562 11.3718 28.4089 11.3788 28.062 11.3828C27.2871 11.3919 26.5116 11.3985 25.7367 11.4099C24.9564 11.4217 24.1766 11.427 23.3964 11.4405C22.1938 11.4607 20.9907 11.4751 19.788 11.504C19.4809 11.5114 19.1738 11.5141 18.8671 11.5206C18.7566 11.5228 18.7535 11.5255 18.7531 11.627C18.7518 12.1015 18.754 12.5755 18.7513 13.05C18.7509 13.1227 18.7749 13.1446 18.8461 13.1476C19.1026 13.1586 19.3581 13.1809 19.6146 13.191C20.5499 13.2277 21.4852 13.2614 22.4205 13.2956C22.4834 13.2978 22.5467 13.296 22.6096 13.296C22.6131 13.3065 22.6171 13.3175 22.6206 13.328C20.9391 14.7624 19.2581 16.1963 17.5679 17.6378C15.8393 15.4947 14.118 13.3621 12.389 11.2208Z" fill="#6B0094"/>
<path d="M34.6929 12.8701C34.7064 12.1742 34.7191 11.4782 34.7331 10.7826C34.7527 9.81442 34.7733 8.84662 34.7934 7.87839C34.8134 6.92548 34.8335 5.97256 34.8536 5.01965C34.8742 4.0466 34.8938 3.07355 34.9144 2.10007C34.9179 1.9438 34.927 1.78754 34.9279 1.63127C34.9283 1.56386 34.9532 1.54504 35.0179 1.54854C35.2791 1.56342 35.5408 1.57349 35.8021 1.58662C36.1738 1.60501 36.5456 1.62383 36.9178 1.64353C37.6063 1.67942 38.2948 1.71663 38.9832 1.75164C39.4756 1.77659 39.9683 1.7976 40.4607 1.82255C41.1693 1.85801 41.8778 1.89609 42.5864 1.93155C43.1242 1.95825 43.6624 1.98145 44.2002 2.00815C44.4535 2.02084 44.416 2.01515 44.3649 2.22657C43.6821 5.06692 42.9988 7.90684 42.3169 10.7476C41.4668 14.2888 40.6184 17.8304 39.7691 21.3719C39.518 22.4203 39.2668 23.469 39.0151 24.5174C38.9815 24.6579 38.9802 24.6609 38.8386 24.6461C38.3135 24.5914 37.7884 24.5331 37.2633 24.4775C36.8483 24.4338 36.4329 24.3913 36.0174 24.3484C35.5273 24.2976 35.0367 24.2473 34.5465 24.1961C34.4544 24.1865 34.4535 24.1847 34.4561 24.0639C34.4648 23.6555 34.4749 23.2471 34.4832 22.8387C34.4963 22.2084 34.5081 21.5781 34.5212 20.9478C34.5413 19.9747 34.5614 19.0013 34.5815 18.0282C34.6016 17.0652 34.6212 16.1022 34.6422 15.1388C34.6588 14.3824 34.6767 13.6265 34.6942 12.8701C34.6942 12.8701 34.6933 12.8701 34.6929 12.8701Z" fill="#6B0094"/>
<path d="M33.5535 27.3428C33.7557 27.3577 33.9449 27.3704 34.134 27.3857C34.5901 27.4221 35.0462 27.4593 35.5023 27.4965C36.0785 27.5433 36.6551 27.5906 37.2314 27.637C37.6573 27.6711 38.0837 27.7048 38.5096 27.7381C38.7905 27.76 39.071 27.7832 39.3519 27.802C39.4257 27.8068 39.4654 27.8309 39.4563 27.911C39.4532 27.936 39.4558 27.9613 39.4558 27.9867C39.4558 29.3835 39.4558 30.7802 39.4558 32.1774C39.4558 32.3622 39.4742 32.3451 39.2833 32.3451C37.5821 32.3455 35.8815 32.3451 34.1804 32.3451C34.0213 32.3451 34.02 32.3451 34.0047 32.1836C33.9396 31.4915 33.8763 30.7991 33.8108 30.1066C33.7452 29.4146 33.6771 28.7225 33.6116 28.0301C33.5915 27.809 33.5744 27.588 33.5535 27.3428Z" fill="#6B0094"/>
</svg>
