<svg width="39" height="27" viewBox="0 0 39 27" fill="none" xmlns="http://www.w3.org/2000/svg">
<path d="M37.1719 2.43592C35.8031 0.817533 33.276 0.157379 28.4498 0.157379H10.9307C5.99408 0.157379 3.42417 0.860116 2.06056 2.58313C0.731079 4.26308 0.731079 6.73836 0.731079 10.1642V16.6938C0.731079 23.3308 2.3085 26.7005 10.9307 26.7005H28.45C32.6352 26.7005 34.9544 26.118 36.4547 24.6898C37.9934 23.2252 38.6499 20.8338 38.6499 16.6938V10.1642C38.6499 6.55136 38.547 4.06148 37.1719 2.43592ZM25.0751 14.3305L17.1197 18.466C16.9418 18.5585 16.7474 18.6043 16.5531 18.6043C16.3332 18.6043 16.1137 18.5454 15.9194 18.4284C15.5534 18.2078 15.3299 17.8133 15.3299 17.3877V9.14318C15.3299 8.71833 15.5528 8.32414 15.918 8.10344C16.2834 7.88274 16.7378 7.86765 17.1169 8.06353L25.0722 12.1724C25.477 12.3814 25.7312 12.797 25.7318 13.2505C25.7323 13.7043 25.4792 14.1205 25.0751 14.3305Z" fill="#FF0000"/>
</svg>
